<svg xmlns="http://www.w3.org/2000/svg" viewBox="0 0 167.3 171.82"><title>all event</title><rect x="33.91" width="15.83" height="29.39" rx="1.13" ry="1.13" fill="#cc0012"/><path d="M156.9,20.35H140.17v7.23c0,4.3-3.17,8.59-7.46,8.59H119.37a9.27,9.27,0,0,1-8.59-8.59V20.35H56.52v7.23a9.27,9.27,0,0,1-8.59,8.59H34.59c-4.3,0-7.46-4.3-7.46-8.59V20.35H10.4A10.63,10.63,0,0,0,0,31V58.78H167.3V31A10.63,10.63,0,0,0,156.9,20.35Z" fill="#cc0012"/><rect x="117.56" width="15.83" height="29.39" rx="1.13" ry="1.13" fill="#cc0012"/><path d="M66.69,126.15l-3.17,18.31,16.28-8.59,1.58-.45,1.58.45,16.28,8.59-3.17-18.31a3.84,3.84,0,0,1,.9-2.94l13.34-12.66L92,107.84A3.39,3.39,0,0,1,89.53,106l-8.14-16.5L73.25,106a3.39,3.39,0,0,1-2.49,1.81l-18.31,2.71,13.34,12.66A3.84,3.84,0,0,1,66.69,126.15Z" fill="#cc0012"/><path d="M0,161.65a10.4,10.4,0,0,0,10.4,10.17H156.9a10.4,10.4,0,0,0,10.4-10.17V65.56H0Zm42.05-54.48a3.17,3.17,0,0,1,2.71-2.26L68,101.28l10.4-21a3.39,3.39,0,0,1,5.88,0l10.4,21L118,104.9a3.27,3.27,0,0,1,1.81,5.65l-16.73,16.28,4.07,23.29a3.39,3.39,0,0,1-1.36,3.17,3.62,3.62,0,0,1-2,.68,2.26,2.26,0,0,1-1.58-.45l-20.8-10.85-20.8,10.85a3.17,3.17,0,0,1-3.62-.23,3.39,3.39,0,0,1-1.36-3.17l4.07-23.29L43,110.55A3.17,3.17,0,0,1,42.05,107.16Z" fill="#cc0012"/></svg>