<svg xmlns="http://www.w3.org/2000/svg" viewBox="0 0 61.61 49.93"><defs><style>.cls-1{fill:#fff;}</style></defs><title>back-icon</title><g id="Layer_2" data-name="Layer 2"><g id="_13" data-name="13"><path class="cls-1" d="M58.23,21.58H11.55L27.36,5.77A3.38,3.38,0,0,0,22.58,1L1,22.53s0,0,0,0a3.32,3.32,0,0,0-.9,1.66.14.14,0,0,0,0,.06A3.05,3.05,0,0,0,0,25H0a3.05,3.05,0,0,0,.07.67.14.14,0,0,0,0,.06A3.32,3.32,0,0,0,1,27.36s0,0,0,0L22.58,48.94a3.38,3.38,0,0,0,4.78-4.78L11.55,28.35H58.23a3.39,3.39,0,0,0,0-6.77Z"/></g></g></svg>