<svg xmlns="http://www.w3.org/2000/svg" viewBox="0 0 96.33 96.28"><defs><style>.cls-1{fill:#00ba19;}</style></defs><title>bank</title><g id="Layer_2" data-name="Layer 2"><g id="_26" data-name="26"><path class="cls-1" d="M91.91,87.53H4.37a4.38,4.38,0,0,0,0,8.75H91.91a4.38,4.38,0,1,0,0-8.75Z"/><path class="cls-1" d="M9.85,76.15a4.38,4.38,0,0,0,0,8.75H86.43a4.38,4.38,0,1,0,0-8.75H85.34V36.76h1.09a2.19,2.19,0,1,0,0-4.37H9.85a2.19,2.19,0,0,0,0,4.37h1.09V76.15ZM63.46,36.76H76.59V76.15H63.46Zm-21.88,0H54.71V76.15H41.58Zm-21.88,0H32.82V76.15H19.7Z"/><path class="cls-1" d="M4.37,28.45H92a4.38,4.38,0,0,0,1.42-8.52L49.94.38a4.4,4.4,0,0,0-3.59,0L2.58,20.08a4.38,4.38,0,0,0,1.79,8.37Z"/></g></g></svg>