<svg xmlns="http://www.w3.org/2000/svg" viewBox="0 0 30 30"><defs><style>.cls-1{fill:#898989;}</style></defs><title>calender</title><g id="Layer_2" data-name="Layer 2"><g id="_17" data-name="17"><path class="cls-1" d="M26.25,3.75H25V1.25A1.25,1.25,0,0,0,23.75,0H22.5a1.25,1.25,0,0,0-1.25,1.25v2.5H8.75V1.25A1.25,1.25,0,0,0,7.5,0H6.25A1.25,1.25,0,0,0,5,1.25v2.5H3.75A3.75,3.75,0,0,0,0,7.5V26.25A3.75,3.75,0,0,0,3.75,30h22.5A3.75,3.75,0,0,0,30,26.25V7.5a3.75,3.75,0,0,0-3.75-3.75Zm0,23.75H3.75A1.25,1.25,0,0,1,2.5,26.25V11.3h25v15a1.25,1.25,0,0,1-1.25,1.25Z"/></g></g></svg>