<svg xmlns="http://www.w3.org/2000/svg" viewBox="0 0 69.63 69.63"><title>calender</title><path d="M63.83,6.52H54.4V2.18a2.18,2.18,0,1,0-4.36,0V6.52H37V2.18a2.18,2.18,0,1,0-4.36,0V6.52H19.58V2.18a2.17,2.17,0,1,0-4.34,0V6.52H5.8A5.81,5.81,0,0,0,0,12.32v51.5a5.81,5.81,0,0,0,5.8,5.81h58a5.81,5.81,0,0,0,5.8-5.81V12.32A5.81,5.81,0,0,0,63.83,6.52Zm1.44,57.3a1.45,1.45,0,0,1-1.44,1.46H5.8a1.45,1.45,0,0,1-1.44-1.46V12.32A1.45,1.45,0,0,1,5.8,10.88h9.44v4.36a2.17,2.17,0,0,0,4.34,0V10.88H32.64v4.36a2.18,2.18,0,0,0,4.36,0V10.88H50v4.36a2.18,2.18,0,0,0,4.36,0V10.88h9.44a1.45,1.45,0,0,1,1.44,1.44Z" fill="#cc0012"/><rect x="15.24" y="26.12" width="8.7" height="6.52" fill="#cc0012"/><rect x="15.24" y="37" width="8.7" height="6.52" fill="#cc0012"/><rect x="15.24" y="47.87" width="8.7" height="6.52" fill="#cc0012"/><rect x="30.46" y="47.87" width="8.7" height="6.52" fill="#cc0012"/><rect x="30.46" y="37" width="8.7" height="6.52" fill="#cc0012"/><rect x="30.46" y="26.12" width="8.7" height="6.52" fill="#cc0012"/><rect x="45.7" y="47.87" width="8.7" height="6.52" fill="#cc0012"/><rect x="45.7" y="37" width="8.7" height="6.52" fill="#cc0012"/><rect x="45.7" y="26.12" width="8.7" height="6.52" fill="#cc0012"/></svg>