<svg xmlns="http://www.w3.org/2000/svg" viewBox="0 0 68.77 54.07"><defs><style>.cls-1{fill:#d50012;}</style></defs><title>camera</title><g id="Layer_2" data-name="Layer 2"><g id="_32" data-name="32"><path class="cls-1" d="M34.38,14A16.14,16.14,0,0,0,23,18.74,16.06,16.06,0,0,0,34.38,46.16a16.1,16.1,0,0,0,11.38-4.7,15.93,15.93,0,0,0,4.7-11.36A16,16,0,0,0,34.38,14Zm8.89,25a12.65,12.65,0,0,1-17.78,0,12.52,12.52,0,0,1-3.66-8.88,12.75,12.75,0,0,1,3.66-8.88,12.5,12.5,0,0,1,8.89-3.66,12.78,12.78,0,0,1,8.89,3.66,12.46,12.46,0,0,1,3.66,8.88A12.19,12.19,0,0,1,43.27,39.05Z"/><path class="cls-1" d="M66.48,8.42a7.44,7.44,0,0,0-5.43-2.28H50.2V6a5.87,5.87,0,0,0-1.76-4.25A6,6,0,0,0,44.19,0H24.58a6,6,0,0,0-4.32,1.76A6,6,0,0,0,18.5,6v.13H7.71A7.41,7.41,0,0,0,2.29,8.42,7.77,7.77,0,0,0,0,13.84V46.36a7.37,7.37,0,0,0,2.29,5.42,7.77,7.77,0,0,0,5.42,2.29H61.05a7.41,7.41,0,0,0,5.43-2.29,7.77,7.77,0,0,0,2.29-5.42V13.84A7.38,7.38,0,0,0,66.48,8.42ZM65.37,46.36H65.3a4.23,4.23,0,0,1-4.25,4.24H7.71a4.25,4.25,0,0,1-4.25-4.24V13.84A4.25,4.25,0,0,1,7.71,9.6H20.33a1.76,1.76,0,0,0,1.76-1.76V5.94a2.6,2.6,0,0,1,.72-1.83,2.59,2.59,0,0,1,1.83-.71H44.19A2.59,2.59,0,0,1,46,4.11a2.56,2.56,0,0,1,.72,1.83v1.9A1.76,1.76,0,0,0,48.5,9.6H61.12a4.25,4.25,0,0,1,4.25,4.24Z"/><circle class="cls-1" cx="57.65" cy="17.17" r="3.2"/></g></g></svg>