<?xml version="1.0"?>
<svg xmlns="http://www.w3.org/2000/svg" xmlns:xlink="http://www.w3.org/1999/xlink" xmlns:svgjs="http://svgjs.com/svgjs" version="1.1" width="512" height="512" x="0" y="0" viewBox="0 0 512 512" style="enable-background:new 0 0 512 512" xml:space="preserve" class=""><g><g xmlns="http://www.w3.org/2000/svg"><path d="m451 30h-45v-15c0-8.284-6.716-15-15-15h-270c-41.355 0-75 33.645-75 75v392c0 24.813 20.187 45 45 45h300c8.284 0 15-6.716 15-15 0-8.45 0-67.527 0-75h45c8.284 0 15-6.716 15-15 0-10.211 0-351.789 0-362 0-8.284-6.716-15-15-15zm-15 181h-30v-60h30zm-30 30h30v60h-30zm30-181v61h-30v-61zm-315-30h255v392h-285c-5.258 0-10.305.915-15 2.58v-349.58c0-24.813 20.187-45 45-45zm-45 437c0-8.271 6.729-15 15-15h285v30h-285c-8.271 0-15-6.729-15-15zm330-75v-61h30v61z" fill="#fff" data-original="#000000" style=""/><path d="m203.76 323.36c19.832 19.832 46.199 30.754 74.246 30.754 28.046 0 54.414-10.922 74.246-30.754 5.857-5.858 5.857-15.355 0-21.213l-63.639-63.639c-5.857-5.857-15.354-5.858-21.213 0l-10.607 10.607-42.426-42.427 10.606-10.606c5.855-5.855 5.857-15.356 0-21.213l-63.64-63.64c-5.857-5.858-15.355-5.858-21.213 0-40.939 40.939-40.939 107.552 0 148.492zm-51.968-179.247 41.361 41.361-10.606 10.606c-5.854 5.855-5.857 15.356 0 21.213l63.64 63.64c5.858 5.858 15.355 5.857 21.213 0l10.607-10.607 41.372 41.372c-12.166 8.078-26.435 12.415-41.372 12.415-20.033 0-38.867-7.801-53.033-21.967l-63.64-63.64c-25.612-25.61-28.791-65.289-9.542-94.393z" fill="#fff" data-original="#000000" style=""/></g></g></svg>
