<svg xmlns="http://www.w3.org/2000/svg" viewBox="0 0 66.65 54.76"><title>hise</title><path d="M66.12,25.81A50.83,50.83,0,0,0,53.8,14l-7.7,7.7A14,14,0,0,1,27.62,40.16l-5.29,5.29a35,35,0,0,0,11,1.79c12.73,0,24.28-7,32.8-18.28A2.64,2.64,0,0,0,66.12,25.81Z" fill="#fff"/><path d="M29.6,33.93,39.89,23.65,44.53,19l6.65-6.65,8.94-8.94A2,2,0,0,0,57.3.59L47.4,10.48q-1.52-.65-3.08-1.17a35,35,0,0,0-11-1.8C20.59,7.52,9,14.48.52,25.8a2.64,2.64,0,0,0,0,3.15A50.84,50.84,0,0,0,12.85,40.79c.86.57,1.73,1.12,2.62,1.62L6.54,51.35a2,2,0,1,0,2.83,2.83l9.89-9.89,5.69-5.69Zm-9.06-.84A14,14,0,0,1,41.71,16.17l-4.65,4.65a7.51,7.51,0,0,0-3.27-1,7.68,7.68,0,0,0-.95,0,7.53,7.53,0,0,0-7,8,7.45,7.45,0,0,0,1,3.27l-4.66,4.66A14,14,0,0,1,20.54,33.09Z" fill="#fff"/></svg>