<svg xmlns="http://www.w3.org/2000/svg" viewBox="0 0 143.75 87.7"><defs><style>.cls-1{fill:none;stroke:#fff;stroke-miterlimit:10;stroke-width:5px;}</style></defs><title>insta</title><g id="Layer_2" data-name="Layer 2"><g id="_17" data-name="17"><path class="cls-1" d="M44,2.5H6.87A4.36,4.36,0,0,0,2.5,6.87V29a4.36,4.36,0,0,0,4.37,4.36,10.49,10.49,0,0,1,0,21A4.36,4.36,0,0,0,2.5,58.7V80.83A4.37,4.37,0,0,0,6.87,85.2H44Z"/><path class="cls-1" d="M136.88,33.36A4.37,4.37,0,0,0,141.25,29V6.87a4.37,4.37,0,0,0-4.37-4.37H52.69V85.2h84.19a4.37,4.37,0,0,0,4.37-4.37V58.7a4.37,4.37,0,0,0-4.37-4.36,10.49,10.49,0,0,1,0-21Z"/></g></g></svg>