<svg xmlns="http://www.w3.org/2000/svg" viewBox="0 0 57.57 63.71"><defs><style>.cls-1{fill:#ff002b;}</style></defs><title>instapass-2</title><g id="Layer_2" data-name="Layer 2"><g id="_19" data-name="19"><path class="cls-1" d="M28.1,54.54a6.86,6.86,0,0,1-5.55,2.15c-5.38,0-10.76,0-16.15,0A6,6,0,0,1,0,50.31V6.36A6,6,0,0,1,6.4,0H23.09a6,6,0,0,1,6.39,6.37V9.22C31.3,7.11,33.54,7,35.88,7,40.93,7.07,46,7,51,7c4.05,0,6.53,2.47,6.53,6.5q0,21.89,0,43.77c0,3.91-2.51,6.4-6.44,6.4H34.44a6,6,0,0,1-6.34-6.32Zm12.12-29,11.56,7.76L44.14,44.89l-1-4.86A28.82,28.82,0,0,1,37.87,40a5.12,5.12,0,0,0-4.5.89,10.07,10.07,0,0,1-3.9,1.71V54.4h26.7V13.32H29.48c0,2,0,4,0,6,0,.58.17.79.76.95a11.06,11.06,0,0,1,8.48,8.64c.17.7.22,1.42.34,2.24l2.15-.8ZM12.74,23.22c2.19.15,4.25.3,6.3.4a1.19,1.19,0,0,0,.74-.4,10.88,10.88,0,0,1,4.78-2.79c1.12-.29,2.29-.4,3.5-.6V6H1.4V47.32H28.1V42.56c-6.92-.41-9.64-3.1-11.65-10l-.42.1c-1.29.43-1.3.43-1.05,1.72s.47,2.3.73,3.62L4.16,30.23l7.63-11.62ZM27.65,40.08a8.93,8.93,0,1,0-8.88-8.91A8.92,8.92,0,0,0,27.65,40.08ZM17.19,51.78a2.44,2.44,0,0,0-2.41-2.5,2.47,2.47,0,1,0,0,4.94A2.42,2.42,0,0,0,17.19,51.78Z"/><path class="cls-1" d="M31,30.92a8,8,0,0,0-2.78-1.2,4.22,4.22,0,0,1-1.28-.6.73.73,0,0,1-.27-.6.87.87,0,0,1,.26-.67,1.3,1.3,0,0,1,.92-.25,1.28,1.28,0,0,1,.93.31,1.15,1.15,0,0,1,.32.9v.28H31.8l.12-.24v-.06A2.74,2.74,0,0,0,31,26.61a4.05,4.05,0,0,0-2.2-1v-.74H27v.71a4.46,4.46,0,0,0-2.3.86,2.52,2.52,0,0,0-1,2,2.49,2.49,0,0,0,1,2.09,8.48,8.48,0,0,0,2.79,1.2,3.54,3.54,0,0,1,1.26.58.78.78,0,0,1,.29.65.76.76,0,0,1-.29.65,1.67,1.67,0,0,1-1,.26,1.94,1.94,0,0,1-1.16-.31,1.13,1.13,0,0,1-.39-1v-.27H23.45l-.14.23v.08A2.63,2.63,0,0,0,24.39,35a4.88,4.88,0,0,0,2.45.87v.6h1.83v-.6a4.54,4.54,0,0,0,2.3-.85,2.45,2.45,0,0,0,1-2A2.5,2.5,0,0,0,31,30.92Z"/></g></g></svg>