<svg xmlns="http://www.w3.org/2000/svg" viewBox="0 0 219.99 127.26"><defs><style>.cls-1{fill:#38b126;}.cls-2{fill:#fff;}.cls-3{fill:#268819;}</style></defs><title>instapass-logo-white</title><g id="Layer_2" data-name="Layer 2"><g id="Layer_1-2" data-name="Layer 1"><path class="cls-1" d="M70.59,118.28H48L68.41,59.47H92l21,58.81H90.4l-2-7.33H72.31ZM84.71,97l-2.5-10.37c-.62-2.5-1-5.07-1.4-7.57H80L76.13,97Z"/><path class="cls-2" d="M130.84,50.11h13.34l-.78,9a36.91,36.91,0,0,1,14.82,4.52L152.29,78.5a21.3,21.3,0,0,0-13.65-5c-2.42,0-5.3.86-5.3,3.75s4.6,3,6.63,3.27c11.31,1.33,21.21,4.52,21.21,17.79,0,10.53-7.88,18-18,19.26l.55,9.68H131.07l.55-9.6c-6.71-.23-13-2.89-18.64-6.55l6-15.45c4.92,4.14,10.38,7.49,16.93,7.49,2.5,0,6.63-.39,6.63-3.74,0-2.73-3.2-3.36-5.3-3.67l-3.36-.54c-10.22-1.64-18.8-5.54-18.8-17.24,0-10.77,7.1-15.45,16.15-18.33Z"/><path class="cls-1" d="M45.71,82.34c-3.43-3.2-7.72-5.93-12.56-5.93A11.52,11.52,0,0,0,21.53,87.88c0,6.47,5.54,11.46,11.93,11.46,4.92,0,8.82-2.1,12.25-5.46l-.62,22c-3.44,1.64-11.39,2.34-15.21,2.34A29.47,29.47,0,0,1,0,88.42,30.58,30.58,0,0,1,30.73,57.53,44.76,44.76,0,0,1,45.09,60Z"/><path class="cls-3" d="M164.36,59.47H185V79.28h13.11V59.47h20.59v58.81H198.06V97.85H185v20.43H164.36Z"/><path class="cls-2" d="M17.35,1.29,12.46,29h19.1L36.45,1.29Zm-5,28.43L12,31.8h19.1l.37-2.08ZM10.59,39.6l-.45,2.58h19.1l.45-2.58ZM9.4,46.34,8.05,54h19.1l1.35-7.68ZM11.58,34l-.47,2.67h19.1L30.68,34Z"/><path class="cls-2" d="M62.46,39.6l.88,2.58H88.13l.46-2.58Zm2.31,6.74L67.39,54H86l1.36-7.68ZM60.54,34l.91,2.67H89.12L89.59,34ZM38.79,29.72l-.37,2.08h19l.35-2.08ZM76.26,1.29l-4.8,26.25L62.75,1.29h-19L38.91,29H57.85l.33-2,.67,2H90.47L95.4,1.29ZM59.09,29.72l.71,2.08H90l.37-2.08ZM35.85,46.34,34.5,54H53.61l1.3-7.68ZM38,34l-.47,2.67h19L57,34ZM37,39.6l-.45,2.58h19l.44-2.58Z"/><path class="cls-2" d="M92.1,46.34A34.76,34.76,0,0,0,102.22,53a30.63,30.63,0,0,0,11.93,2.29,28.42,28.42,0,0,0,12-2.42,19.06,19.06,0,0,0,8-6.55Zm45-12.36h-26l3.62,1.33a5,5,0,0,1,2,1.34h20.45c0-.26,0-.53,0-.79A16.29,16.29,0,0,0,137.14,34ZM116.61,39.6a4,4,0,0,1-2.14.47,12.16,12.16,0,0,1-3.32-.47H95.66l-1.74,2.58h42.29a18.48,18.48,0,0,0,.69-2.58ZM102.42,34h-3l-1.79,2.67h8C104.62,35.91,103.56,35,102.42,34Zm17.44-19a2.93,2.93,0,0,1,1.87-.55A11.42,11.42,0,0,1,127,15.93a29.24,29.24,0,0,1,5.43,3.83L138.7,8.58l1.08-1.94-.66-.49a35.84,35.84,0,0,0-5.43-3.3A27.6,27.6,0,0,0,127.42.68a33.64,33.64,0,0,0-6.9-.68,24.74,24.74,0,0,0-10.9,2.32,17.82,17.82,0,0,0-7.46,6.5,17.49,17.49,0,0,0-2.65,9.58,15.9,15.9,0,0,0,2.81,9.49q.42.59.9,1.14h32.45a9.65,9.65,0,0,0-.85-1.36,20.62,20.62,0,0,0-7.89-5.84l-4.42-2.07Q119,18.32,119,16.44A1.81,1.81,0,0,1,119.86,15ZM136,29.72H103.88a15.57,15.57,0,0,0,2.62,2.08h30.25A11.13,11.13,0,0,0,136,29.72Z"/><path class="cls-2" d="M143.39,46.34,142,54h19.14l1.39-7.68ZM145.59,34l-.48,2.67h19.2l.48-2.67Zm-1,5.62-.46,2.58h19.18l.47-2.58ZM140,1.29l-.84,4.86-.42,2.43-1.47,8.49h11.36l-2.12,12h19.22l2.16-12,10.39,0,2.81-15.74Zm6.38,28.43L146,31.8h19.22l.37-2.08Z"/><path class="cls-2" d="M216.73,29.72h-16l.06,2.08H217ZM212.92,1.29H191.56L177.79,29h17.47l5-13.49L200.7,29h15.94ZM177.44,29.72l-1,2.08h17.82l.78-2.08Zm40.62,9.88H172.54l-1.28,2.58H218.4ZM217.3,34H200.86l0,.82h-7.77l.3-.82H175.33L174,36.65h43.66ZM219,46.34H169.19L165.38,54h20.24l2.58-6.8h13.2l.12,6.8H220Z"/></g></g></svg>