<svg xmlns="http://www.w3.org/2000/svg" viewBox="0 0 166.3 177.52"><title>live stream</title><path d="M91.13,48.73a11.26,11.26,0,1,0-15.94,0A11.24,11.24,0,0,0,91.13,48.73Z" fill="#cc0012"/><path d="M102.74,64.21a5.36,5.36,0,0,0,7.58,0,33.1,33.1,0,0,0,0-46.88,5.36,5.36,0,1,0-7.57,7.58,22.39,22.39,0,0,1,0,31.71A5.36,5.36,0,0,0,102.74,64.21Z" fill="#cc0012"/><path d="M128,40.78a44.39,44.39,0,0,1-13.13,31.63A5.36,5.36,0,0,0,122.44,80a55.38,55.38,0,0,0,0-78.43,5.36,5.36,0,1,0-7.57,7.58A44.39,44.39,0,0,1,128,40.78Z" fill="#cc0012"/><path d="M56,64.22a5.36,5.36,0,0,0,7.57-7.58,22.39,22.39,0,0,1,0-31.71A5.36,5.36,0,1,0,56,17.34a33.1,33.1,0,0,0,0,46.88Z" fill="#cc0012"/><path d="M47.65,81.56a5.36,5.36,0,0,0,3.78-9.15,44.66,44.66,0,0,1,0-63.26,5.36,5.36,0,0,0-7.57-7.58,55.38,55.38,0,0,0,0,78.43A5.34,5.34,0,0,0,47.65,81.56Z" fill="#cc0012"/><path d="M153.76,90.82H12.53A12.53,12.53,0,0,0,0,103.35V165a12.53,12.53,0,0,0,12.53,12.53H153.76A12.53,12.53,0,0,0,166.3,165V103.35A12.53,12.53,0,0,0,153.76,90.82ZM41.22,161.44H21.48a5.36,5.36,0,0,1-5.36-5.36V112.26a5.36,5.36,0,1,1,10.71,0v38.47H41.22a5.36,5.36,0,1,1,0,10.72Zm22-5.36a5.36,5.36,0,0,1-10.72,0V112.26a5.36,5.36,0,1,1,10.72,0Zm45.08-42.28L95,157.63h0c-1.44,4.9-8.76,4.78-10.25,0h0L71.53,113.81a5.36,5.36,0,1,1,10.26-3.1l8.1,26.83L98,110.71a5.36,5.36,0,1,1,10.26,3.1Zm33,12.25a5.36,5.36,0,1,1,0,10.72H126v14H144.1a5.36,5.36,0,1,1,0,10.72H120.65a5.36,5.36,0,0,1-5.36-5.36V112.26a5.36,5.36,0,0,1,5.36-5.36h24.17a5.36,5.36,0,0,1,0,10.72H126v8.44Z" fill="#cc0012"/></svg>