<svg xmlns="http://www.w3.org/2000/svg" viewBox="0 0 18.13 22.24"><defs><style>.cls-1{fill:#d10012;}</style></defs><title>loss</title><g id="Layer_2" data-name="Layer 2"><g id="_17" data-name="17"><path class="cls-1" d="M16.94,17.72a1.7,1.7,0,0,0-2-1L8.67,18a3,3,0,0,0-1,.35l-.46.29,10.55-16a1.69,1.69,0,0,0-.2-2.21,1.63,1.63,0,0,0-2.32.09,1.3,1.3,0,0,0-.18.23l-10.58,16,0-.39a3.36,3.36,0,0,0,0-1.14L3.26,9a1.72,1.72,0,0,0-1.69-1.4A1.66,1.66,0,0,0,0,9.3a1.52,1.52,0,0,0,0,.21L2.36,20.92A1.65,1.65,0,0,0,4.3,22.21h0l11.4-2.34A1.64,1.64,0,0,0,17,17.93,1.6,1.6,0,0,0,16.94,17.72Z"/></g></g></svg>