<svg xmlns="http://www.w3.org/2000/svg" viewBox="0 0 48.1 36.2"><defs><style>.cls-1{fill:#404041;}</style></defs><title>more-menu</title><g id="Layer_2" data-name="Layer 2"><g id="_17" data-name="17"><path class="cls-1" d="M45.7,30.77H13.53a2.4,2.4,0,0,0,0,4.8H45.7a2.4,2.4,0,0,0,0-4.8Z"/><path class="cls-1" d="M45.7,15.7H13.53a2.4,2.4,0,0,0,0,4.8H45.7a2.4,2.4,0,0,0,0-4.8Z"/><path class="cls-1" d="M13.53,5.44H45.7a2.4,2.4,0,0,0,0-4.8H13.53a2.4,2.4,0,0,0,0,4.8Z"/><path class="cls-1" d="M3.22,0A3.23,3.23,0,1,0,6.45,3.22,3.22,3.22,0,0,0,3.22,0Z"/><path class="cls-1" d="M3.22,14.88A3.22,3.22,0,1,0,6.45,18.1,3.22,3.22,0,0,0,3.22,14.88Z"/><path class="cls-1" d="M3.22,29.76A3.22,3.22,0,1,0,6.45,33,3.22,3.22,0,0,0,3.22,29.76Z"/></g></g></svg>