<svg xmlns="http://www.w3.org/2000/svg" viewBox="0 0 167.3 134.01"><title>my wallet</title><path d="M155.77,97v19.12h2.39a9.13,9.13,0,0,0,9.13-9V83.95l-6.62,8.54A23.33,23.33,0,0,1,155.77,97Z" fill="#cc0012"/><path d="M144.93,100.25H120.35a24.31,24.31,0,0,1,0-48.61H145a10.51,10.51,0,0,0,2.26-.26V27a9.06,9.06,0,0,0-9.09-9H9.13A9.13,9.13,0,0,0,0,27v97.86A9.24,9.24,0,0,0,9.13,134h129a9.17,9.17,0,0,0,9.09-9.18l0-24.8C146.47,100.12,145.7,100.21,144.93,100.25Z" fill="#cc0012"/><path d="M158.16,0h-129a9.17,9.17,0,0,0-9.09,9.18v.21H138.15A17.59,17.59,0,0,1,155.77,27V44.81L167.3,30V9.18A9.24,9.24,0,0,0,158.16,0Z" fill="#cc0012"/><path d="M160.64,52.45a19.85,19.85,0,0,1-7.21,5.8,19.47,19.47,0,0,1-8.49,1.92H120.35a15.79,15.79,0,0,0,0,31.58H145a11.49,11.49,0,0,0,9-4.44L167.3,70l0-26.08ZM129.91,80.23H119.67a4.27,4.27,0,0,1,0-8.54h10.24a4.27,4.27,0,0,1,0,8.54Z" fill="#cc0012"/></svg>