<svg xmlns="http://www.w3.org/2000/svg" viewBox="0 0 37.97 58"><title>password</title><path d="M32,24.13V11.69C32,5.25,27.09,0,21.08,0H16.89C10.88,0,6,5.25,6,11.69V24.13A19.85,19.85,0,0,0,0,38.4C0,49.21,8.52,58,19,58s19-8.79,19-19.6A19.85,19.85,0,0,0,32,24.13ZM9.61,11.69c0-4.45,3.27-8.07,7.28-8.07h4.19c4,0,7.28,3.62,7.28,8.07v9.66q-.74-.44-1.52-.8l-.06,0-.22-.1-.33-.14-.15-.06L25.6,20h0a18.34,18.34,0,0,0-5.31-1.18h-.13l-.45,0H18.27l-.45,0h-.13A18.34,18.34,0,0,0,12.38,20h0l-.49.2-.15.06-.33.14-.22.1-.06,0q-.78.36-1.52.8ZM19,54.38c-8.47,0-15.36-7.17-15.36-16a16.1,16.1,0,0,1,7.85-13.93l.22-.13.24-.13.43-.22.14-.07a14.9,14.9,0,0,1,5.1-1.43h0l.63,0H19.7l.63,0h0a14.9,14.9,0,0,1,5.1,1.43l.14.07.43.22.24.13.22.13A16.1,16.1,0,0,1,34.34,38.4C34.34,47.21,27.45,54.38,19,54.38ZM19,30.1a5.35,5.35,0,0,0-3.65,9.26L14,45.1a1.82,1.82,0,0,0,0,.39c0,1.57,1.54,2.76,3.58,2.76h2.8c2,0,3.58-1.18,3.58-2.76a1.8,1.8,0,0,0,0-.39l-1.28-5.75A5.35,5.35,0,0,0,19,30.1ZM17.87,44.63l1.12-5,1.12,5ZM19.77,37a1.81,1.81,0,0,0-.79.81,1.81,1.81,0,0,0-.79-.81,1.72,1.72,0,1,1,1.58,0Z" fill="#fff" fill-rule="evenodd"/></svg>