<svg xmlns="http://www.w3.org/2000/svg" viewBox="0 0 102.41 102.41"><defs><style>.cls-1{fill:#fff;}.cls-2{fill:#ff002b;}</style></defs><title>phone</title><g id="Layer_2" data-name="Layer 2"><g id="_19" data-name="19"><circle class="cls-1" cx="51.21" cy="51.21" r="51.21"/><path class="cls-2" d="M59.8,21.51c-5.29,0-10.59,0-15.89,0-2.44,0-4.76.12-6.71,2.3-1.32,1.48-1.42,4.22-1.44,4.3V71.3h0v3a6.27,6.27,0,0,0,6.64,6.63H59.9c4.12,0,6.75-2.62,6.75-6.72V28.33C66.65,24.11,64.05,21.52,59.8,21.51Zm5.38,49.64h-28V28.1h28Z"/><path class="cls-2" d="M48.88,52.3a3.46,3.46,0,0,0,1.71.61v.42h1.28v-.42a3.21,3.21,0,0,0,1.61-.59,1.86,1.86,0,0,0,0-2.9,5.52,5.52,0,0,0-1.94-.85,3.06,3.06,0,0,1-.91-.42.5.5,0,0,1-.18-.42.63.63,0,0,1,.18-.47,1,1,0,0,1,.64-.17.91.91,0,0,1,.66.22.82.82,0,0,1,.22.63v.19h1.92l.09-.17v0a1.92,1.92,0,0,0-.63-1.52A2.85,2.85,0,0,0,52,45.72v-.51H50.7v.49a3.11,3.11,0,0,0-1.61.61,1.73,1.73,0,0,0-.69,1.42,1.74,1.74,0,0,0,.7,1.46,5.87,5.87,0,0,0,2,.84,2.82,2.82,0,0,1,.88.4.6.6,0,0,1,.2.47.54.54,0,0,1-.21.45,1.14,1.14,0,0,1-.71.18,1.37,1.37,0,0,1-.82-.22.78.78,0,0,1-.27-.68v-.19H48.22l-.1.16v0A1.84,1.84,0,0,0,48.88,52.3Z"/><path class="cls-2" d="M51.19,57.41a7.79,7.79,0,1,0-7.76-7.78A7.79,7.79,0,0,0,51.19,57.41Zm0-14.17a6.39,6.39,0,1,1-6.36,6.39A6.39,6.39,0,0,1,51.19,43.24Z"/></g></g></svg>