<svg xmlns="http://www.w3.org/2000/svg" viewBox="0 0 102.41 102.41"><defs><style>.cls-1{fill:#fff;}.cls-2{fill:#ff002b;}</style></defs><title>phone-to-phone</title><g id="Layer_2" data-name="Layer 2"><g id="_19" data-name="19"><circle class="cls-1" cx="51.21" cy="51.21" r="51.21"/><path class="cls-2" d="M50.52,73.89A6.89,6.89,0,0,1,45,76c-5.38-.05-10.76,0-16.15,0a6,6,0,0,1-6.4-6.36V25.71a6,6,0,0,1,6.39-6.36h16.7a6,6,0,0,1,6.38,6.37c0,.86,0,1.72,0,2.84,1.83-2.1,4.07-2.22,6.41-2.19,5.05.05,10.1,0,15.16,0,4.05,0,6.53,2.47,6.53,6.5V76.66c0,3.9-2.51,6.4-6.44,6.4H56.86a6,6,0,0,1-6.34-6.32Zm12.12-29L74.2,52.61,66.56,64.23l-1-4.85a28.81,28.81,0,0,1-5.27-.07,5.12,5.12,0,0,0-4.5.89,10.05,10.05,0,0,1-3.91,1.71V73.75H78.59V32.67H51.89c0,2,0,4,0,6,0,.58.17.79.76.94a11.09,11.09,0,0,1,8.48,8.65c.17.7.22,1.42.34,2.24l2.15-.8ZM35.16,42.57c2.19.15,4.25.3,6.3.4a1.22,1.22,0,0,0,.74-.4A10.79,10.79,0,0,1,47,39.78c1.12-.29,2.29-.4,3.5-.6V25.32H23.82V66.67h26.7V61.91c-6.92-.41-9.64-3.11-11.65-10l-.43.1c-1.28.43-1.29.43-1,1.72s.46,2.3.73,3.62L26.58,49.58,34.21,38ZM50.07,59.43a8.93,8.93,0,1,0-8.88-8.91A8.92,8.92,0,0,0,50.07,59.43ZM39.61,71.13a2.47,2.47,0,1,0-4.93,0,2.48,2.48,0,0,0,2.46,2.45A2.42,2.42,0,0,0,39.61,71.13Z"/><path class="cls-2" d="M53.37,50.27a8,8,0,0,0-2.78-1.2,4.08,4.08,0,0,1-1.28-.6.73.73,0,0,1-.27-.6.87.87,0,0,1,.26-.67,1.67,1.67,0,0,1,1.85.06,1.19,1.19,0,0,1,.32.9v.27h2.75l.12-.23v-.06A2.74,2.74,0,0,0,53.45,46a4.05,4.05,0,0,0-2.2-1v-.74H49.42V45a4.46,4.46,0,0,0-2.3.86,2.63,2.63,0,0,0,0,4.11,8.42,8.42,0,0,0,2.8,1.21,3.63,3.63,0,0,1,1.26.58.77.77,0,0,1,.29.65.74.74,0,0,1-.3.65,1.64,1.64,0,0,1-1,.26A1.94,1.94,0,0,1,49,53a1.1,1.1,0,0,1-.39-1v-.27H45.87l-.14.23V52a2.63,2.63,0,0,0,1.08,2.35,4.88,4.88,0,0,0,2.44.87v.6h1.84v-.6a4.54,4.54,0,0,0,2.3-.85,2.47,2.47,0,0,0,1-2A2.53,2.53,0,0,0,53.37,50.27Z"/></g></g></svg>