<svg xmlns="http://www.w3.org/2000/svg" viewBox="0 0 30.89 59.42"><defs><style>.cls-1{fill:#ff002b;}</style></defs><title>phone#</title><g id="Layer_2" data-name="Layer 2"><g id="_19" data-name="19"><path class="cls-1" d="M24,0C18.75,0,13.45.06,8.15,0,5.71,0,3.39.12,1.44,2.3.12,3.78,0,6.52,0,6.6V49.81H0v3a6.26,6.26,0,0,0,6.64,6.63h17.5c4.12,0,6.75-2.62,6.75-6.71V6.84C30.89,2.61,28.29,0,24,0Zm5.38,49.64h-28V6.6h28Z"/><path class="cls-1" d="M13.12,30.81a3.46,3.46,0,0,0,1.71.6v.42h1.28v-.42a3,3,0,0,0,1.61-.59,1.72,1.72,0,0,0,.69-1.43,1.75,1.75,0,0,0-.7-1.47,5.53,5.53,0,0,0-1.94-.84,3.06,3.06,0,0,1-.91-.42.53.53,0,0,1-.18-.42.61.61,0,0,1,.18-.47.91.91,0,0,1,.64-.17,1,1,0,0,1,.66.21.84.84,0,0,1,.22.64v.19H18.3l.09-.17v0a1.94,1.94,0,0,0-.63-1.53,2.77,2.77,0,0,0-1.54-.67v-.52H14.94v.5a3.2,3.2,0,0,0-1.61.6,1.78,1.78,0,0,0-.69,1.42,1.72,1.72,0,0,0,.7,1.46,5.86,5.86,0,0,0,2,.85,2.82,2.82,0,0,1,.88.4.58.58,0,0,1,.2.46.53.53,0,0,1-.21.45,1.14,1.14,0,0,1-.71.18,1.45,1.45,0,0,1-.82-.21.8.8,0,0,1-.27-.69v-.19H12.46l-.1.17v.05A1.86,1.86,0,0,0,13.12,30.81Z"/><path class="cls-1" d="M15.43,35.92a7.79,7.79,0,1,0-7.76-7.79A7.8,7.8,0,0,0,15.43,35.92Zm0-14.17a6.39,6.39,0,1,1-6.36,6.38A6.38,6.38,0,0,1,15.43,21.75Z"/></g></g></svg>