<svg xmlns="http://www.w3.org/2000/svg" viewBox="0 0 18.13 22.24"><defs><style>.cls-1{fill:#00b519;}</style></defs><title>profit</title><g id="Layer_2" data-name="Layer 2"><g id="_17" data-name="17"><path class="cls-1" d="M1.19,4.52a1.7,1.7,0,0,0,2,1L9.45,4.24a3.56,3.56,0,0,0,1-.35l.46-.29L.32,19.59A1.7,1.7,0,0,0,.51,21.8a1.65,1.65,0,0,0,2.33-.09A2,2,0,0,0,3,21.48l10.58-16-.06.39a3.36,3.36,0,0,0,0,1.14l1.29,6.31a1.72,1.72,0,0,0,1.69,1.4,1.66,1.66,0,0,0,1.57-1.73l0-.22L15.77,1.32A1.66,1.66,0,0,0,13.82,0h0L2.42,2.37A1.63,1.63,0,0,0,1.14,4.31,1.6,1.6,0,0,0,1.19,4.52Z"/></g></g></svg>