<svg xmlns="http://www.w3.org/2000/svg" viewBox="0 0 384 384"><defs><style>.cls-1{fill:#032c65;}.cls-2{fill:#fff;fill-rule:evenodd;}</style></defs><title>Asset 1</title><g id="Layer_2" data-name="Layer 2"><g id="_13" data-name="13"><circle class="cls-1" cx="192" cy="192" r="192"/><g id="Forma_1" data-name="Forma 1"><path class="cls-2" d="M253.28,155a14.13,14.13,0,0,0-10.36-4.36H222.2v-.25a11.17,11.17,0,0,0-3.37-8.1,11.42,11.42,0,0,0-8.11-3.37H173.28a11.51,11.51,0,0,0-8.24,3.37,11.4,11.4,0,0,0-3.37,8.1v.25H141.08A14.13,14.13,0,0,0,130.72,155a14.82,14.82,0,0,0-4.36,10.35V227.4a14.11,14.11,0,0,0,4.36,10.35,14.84,14.84,0,0,0,10.36,4.36H242.92a14.13,14.13,0,0,0,10.36-4.36,14.82,14.82,0,0,0,4.36-10.35V165.32A14.12,14.12,0,0,0,253.28,155Zm-2.12,72.43H251a8.09,8.09,0,0,1-8.11,8.11H141.08A8.09,8.09,0,0,1,133,227.4V165.32a8.09,8.09,0,0,1,8.11-8.1h24.09a3.36,3.36,0,0,0,3.37-3.37v-3.61a4.69,4.69,0,0,1,4.86-4.87h37.32a4.7,4.7,0,0,1,4.87,4.87v3.61a3.35,3.35,0,0,0,3.37,3.37H243a8.11,8.11,0,0,1,8.12,8.1ZM192,165.69a30.78,30.78,0,0,0-21.72,9A30.67,30.67,0,0,0,192,227a30.78,30.78,0,0,0,21.72-9,30.68,30.68,0,0,0,0-43.38A30.78,30.78,0,0,0,192,165.69Zm17,47.75a24.12,24.12,0,0,1-33.94,0,23.81,23.81,0,0,1-7-16.95,24.34,24.34,0,0,1,7-17,23.89,23.89,0,0,1,17-7,24.4,24.4,0,0,1,17,7,23.83,23.83,0,0,1,7,17A23.28,23.28,0,0,1,209,213.44Zm27.46-47.87a6.11,6.11,0,1,0,6.11,6.11A6.11,6.11,0,0,0,236.43,165.57Z"/></g></g></g></svg>