<svg xmlns="http://www.w3.org/2000/svg" viewBox="0 0 72.51 72.51"><defs><style>.cls-1{fill:#fff;}</style></defs><title>qr</title><g id="Layer_2" data-name="Layer 2"><g id="_19" data-name="19"><path class="cls-1" d="M32,12.89H15A2.12,2.12,0,0,0,12.89,15V32A2.12,2.12,0,0,0,15,34.13H32A2.12,2.12,0,0,0,34.13,32V15A2.12,2.12,0,0,0,32,12.89Zm-2.13,17H17.14V17.14H29.88Z"/><circle class="cls-1" cx="23.51" cy="23.51" r="2.12"/><path class="cls-1" d="M2.12,17a2.12,2.12,0,0,0,2.13-2.12V4.25H14.87a2.13,2.13,0,0,0,0-4.25H2.12A2.12,2.12,0,0,0,0,2.12V14.87A2.12,2.12,0,0,0,2.12,17Z"/><path class="cls-1" d="M70.39,0H57.64a2.13,2.13,0,0,0,0,4.25H68.26V14.87a2.13,2.13,0,0,0,4.25,0V2.12A2.12,2.12,0,0,0,70.39,0Z"/><path class="cls-1" d="M14.87,68.26H4.25V57.64a2.13,2.13,0,0,0-4.25,0V70.39a2.12,2.12,0,0,0,2.12,2.12H14.87a2.13,2.13,0,0,0,0-4.25Z"/><path class="cls-1" d="M70.39,55.52a2.12,2.12,0,0,0-2.13,2.12V68.26H57.64a2.13,2.13,0,0,0,0,4.25H70.39a2.12,2.12,0,0,0,2.12-2.12V57.64A2.12,2.12,0,0,0,70.39,55.52Z"/><path class="cls-1" d="M40.5,34.13h17A2.12,2.12,0,0,0,59.62,32V15a2.12,2.12,0,0,0-2.12-2.12h-17A2.12,2.12,0,0,0,38.38,15V32A2.12,2.12,0,0,0,40.5,34.13Zm2.13-17H55.37V29.88H42.63Z"/><path class="cls-1" d="M32,38.38H15a2.12,2.12,0,0,0-2.12,2.12v17A2.12,2.12,0,0,0,15,59.62H32a2.12,2.12,0,0,0,2.12-2.12v-17A2.12,2.12,0,0,0,32,38.38Zm-2.13,17H17.14V42.63H29.88Z"/><path class="cls-1" d="M40.5,42.63H55.37v3.54a2.13,2.13,0,0,0,4.25,0V40.5a2.12,2.12,0,0,0-2.12-2.12h-17a2.13,2.13,0,0,0,0,4.25Z"/><circle class="cls-1" cx="23.51" cy="49" r="2.12"/><path class="cls-1" d="M49,46.88H40.5A2.12,2.12,0,0,0,38.38,49v8.5a2.12,2.12,0,0,0,2.12,2.12H49a2.13,2.13,0,0,0,2.13-2.12V49A2.13,2.13,0,0,0,49,46.88Zm-2.12,8.49H42.63V51.13h4.25Z"/><circle class="cls-1" cx="49" cy="23.51" r="2.12"/><path class="cls-1" d="M57.5,59.62a2.12,2.12,0,0,0,2.12-2.12V54.67a2.13,2.13,0,1,0-4.25,0V57.5A2.12,2.12,0,0,0,57.5,59.62Z"/></g></g></svg>