<svg xmlns="http://www.w3.org/2000/svg" viewBox="0 0 102.41 102.41"><defs><style>.cls-1{fill:#fff;}.cls-2{fill:#ff002b;}</style></defs><title>recieve-money</title><g id="Layer_2" data-name="Layer 2"><g id="_19" data-name="19"><circle class="cls-1" cx="51.21" cy="51.21" r="51.21"/><path class="cls-2" d="M68.85,56.33l-5,6.52a5.27,5.27,0,0,1-4.19,2.07H50.42a1.32,1.32,0,0,1,0-2.64h8a3.13,3.13,0,0,0,3.14-3.14,3.08,3.08,0,0,0-3.08-3H49.27a7.63,7.63,0,0,0-9.73-.71l-1,.71V71.07H61.48a7.91,7.91,0,0,0,6.65-3.63l5.15-8a2.71,2.71,0,0,0-4.43-3.1Z"/><rect class="cls-2" x="28.71" y="53.49" width="7.21" height="20.21" rx="1.32"/><path class="cls-2" d="M53.87,36a1.32,1.32,0,0,0-.47.79.9.9,0,0,0,.23.88,1.46,1.46,0,0,0,.24.17Z"/><path class="cls-2" d="M54.81,50.68a11,11,0,1,0-11-11A11,11,0,0,0,54.81,50.68Zm-3.33-7.4A.88.88,0,0,1,52.7,43a2.61,2.61,0,0,0,1.17.5V39.82A6.47,6.47,0,0,1,52.55,39a2.61,2.61,0,0,1-.87-2.59,3,3,0,0,1,2-2.32l.16,0v-.55a.88.88,0,1,1,1.76,0V34a3.14,3.14,0,0,1,1.75.9.87.87,0,0,1-.09,1.24.86.86,0,0,1-1.23-.08,1.26,1.26,0,0,0-.43-.25v2.84l.46.17a3.14,3.14,0,0,1,2.14,3.56,3.58,3.58,0,0,1-2.6,2.85v.62a.88.88,0,0,1-1.76,0V45.3a4.19,4.19,0,0,1-2.13-.8A.88.88,0,0,1,51.48,43.28Z"/><path class="cls-2" d="M56.5,42.08a1.36,1.36,0,0,0-.87-1.57v2.83A1.86,1.86,0,0,0,56.5,42.08Z"/></g></g></svg>