<svg xmlns="http://www.w3.org/2000/svg" viewBox="0 0 167.26 167.25"><title>send money</title><path d="M125.43,76.66a41.81,41.81,0,1,0-41.81,41.81A41.85,41.85,0,0,0,125.43,76.66Zm-47,22.65V97.56H74.91a5.23,5.23,0,1,1,0-10.45h9.58a2.61,2.61,0,0,0,0-5.23H82.75a13,13,0,0,1-4.36-25.33V54a5.23,5.23,0,0,1,10.45,0v1.74h3.48a5.23,5.23,0,1,1,0,10.45H82.75a2.61,2.61,0,1,0,0,5.23h1.74a13,13,0,0,1,4.36,25.33V99.3a5.23,5.23,0,0,1-10.45,0Z" fill="#cc0012"/><path d="M155.2,71.58A5.23,5.23,0,0,0,150,76.81a66.43,66.43,0,0,1-50.9,64.46v-6.52a5.23,5.23,0,0,0-8.92-3.69L76.52,144.69a5.23,5.23,0,0,0,0,7.39l13.64,13.63A5.23,5.23,0,0,0,99.08,162V152a76.93,76.93,0,0,0,61.35-75.24A5.23,5.23,0,0,0,155.2,71.58Z" fill="#cc0012"/><path d="M61.49,139.3A66.16,66.16,0,0,1,21.4,53.86l6.26,3.61a5.23,5.23,0,0,0,7.67-5.88L30,31.84a5.24,5.24,0,0,0-6.41-3.69L3.86,33.44A5.23,5.23,0,0,0,2.61,43l9.61,5.55A76.69,76.69,0,0,0,58,149.16a5.23,5.23,0,1,0,3.45-9.87Z" fill="#cc0012"/><path d="M160.66,34.26l-11.24,3A77.36,77.36,0,0,0,83.62,0,75,75,0,0,0,36.17,16.63a5.23,5.23,0,1,0,6.55,8.15,64.6,64.6,0,0,1,40.9-14.33,66.78,66.78,0,0,1,55.2,29.66l-6.09,1.63a5.23,5.23,0,0,0-1.26,9.57l17.71,10.23a5.22,5.22,0,0,0,7.14-1.92l10.24-17.71A5.23,5.23,0,0,0,160.66,34.26Z" fill="#cc0012"/></svg>