<svg xmlns="http://www.w3.org/2000/svg" viewBox="0 0 455.35 455.35"><defs><style>.cls-1,.cls-2,.cls-3{fill:#ff002b;}.cls-1{opacity:0.2;}.cls-2{opacity:0.4;}.cls-4{fill:#fff;}</style></defs><title>sorry</title><g id="Layer_2" data-name="Layer 2"><g id="_25" data-name="25"><circle class="cls-1" cx="227.67" cy="227.67" r="227.67"/><circle class="cls-2" cx="227.67" cy="227.67" r="199.24"/><circle class="cls-3" cx="227.67" cy="227.67" r="170.81"/><path class="cls-4" d="M288.28,177.15H167.75a5.36,5.36,0,0,0-5.34,5.35v81.85a5.28,5.28,0,0,0,5.34,5.21h84.53a3.47,3.47,0,0,1,2,.7l18,13.38a2.79,2.79,0,0,0,4.46-2.24v-8.29a3.66,3.66,0,0,1,3.63-3.55h7.93a5.06,5.06,0,0,0,5.08-5.21V182.19a4.92,4.92,0,0,0-5.08-5Zm-56.67,69.2a3.51,3.51,0,0,1-3.74,3.5,3.59,3.59,0,0,1-3.27-3.62v-6.77a3.58,3.58,0,0,1,3.27-3.61,3.5,3.5,0,0,1,3.74,3.49Zm0-17.52a3.51,3.51,0,0,1-3.74,3.5,3.59,3.59,0,0,1-3.27-3.62V200.05a3.59,3.59,0,0,1,3.27-3.62,3.51,3.51,0,0,1,3.74,3.5Z"/></g></g></svg>