<svg xmlns="http://www.w3.org/2000/svg" viewBox="0 0 96.95 60.6"><title>ticket</title><path d="M94.58,21.9,97,21.5V0H0V21.5l2.37.4a8.52,8.52,0,0,1,0,16.8L0,39.1V60.6H97V39.1l-2.37-.4a8.52,8.52,0,0,1,0-16.8Zm-3.31,21.8V54.92H70.44V50.28H64.76v4.64H5.68V43.69a14.21,14.21,0,0,0,0-26.79V5.68H64.76v4.64h5.68V5.68H91.27V16.9a14.21,14.21,0,0,0,0,26.79Z" fill="#cc0012"/><rect x="64.76" y="33.23" width="5.68" height="11.36" fill="#cc0012"/><rect x="64.76" y="16" width="5.68" height="11.36" fill="#cc0012"/></svg>