<svg xmlns="http://www.w3.org/2000/svg" viewBox="0 0 58.1 69.63"><title>user-footer</title><path d="M28.61,33.54a16.23,16.23,0,0,0,11.86-4.91,16.23,16.23,0,0,0,4.91-11.86A16.23,16.23,0,0,0,40.47,4.91,16.23,16.23,0,0,0,28.61,0,16.23,16.23,0,0,0,16.75,4.91a16.23,16.23,0,0,0-4.91,11.86,16.23,16.23,0,0,0,4.91,11.86,16.23,16.23,0,0,0,11.86,4.91Zm-9-25.74a12.12,12.12,0,0,1,9-3.72,12.13,12.13,0,0,1,9,3.72,12.13,12.13,0,0,1,3.72,9,12.12,12.12,0,0,1-3.72,9,12.12,12.12,0,0,1-9,3.72,12.12,12.12,0,0,1-9-3.72,12.12,12.12,0,0,1-3.72-9,12.12,12.12,0,0,1,3.72-9Zm0,0" fill="#fff"/><path d="M58,53.54a41.45,41.45,0,0,0-.56-4.4,34.63,34.63,0,0,0-1.08-4.42,21.89,21.89,0,0,0-1.82-4.13A15.54,15.54,0,0,0,51.75,37a12.09,12.09,0,0,0-3.94-2.48,13.61,13.61,0,0,0-5-.91,5.1,5.1,0,0,0-2.73,1.16l-2.84,1.83a16.27,16.27,0,0,1-3.67,1.62,14.26,14.26,0,0,1-9,0,16.21,16.21,0,0,1-3.67-1.62L18,34.79a5.1,5.1,0,0,0-2.72-1.16,13.6,13.6,0,0,0-5,.91A12.08,12.08,0,0,0,6.34,37,15.56,15.56,0,0,0,3.6,40.59a21.89,21.89,0,0,0-1.82,4.13A34.59,34.59,0,0,0,.7,49.14a41.13,41.13,0,0,0-.56,4.4C0,54.88,0,56.26,0,57.66a11.56,11.56,0,0,0,3.43,8.75,12.36,12.36,0,0,0,8.85,3.23H45.81a12.37,12.37,0,0,0,8.85-3.23,11.56,11.56,0,0,0,3.43-8.75c0-1.4,0-2.79-.14-4.11Zm-6.11,9.91a8.32,8.32,0,0,1-6,2.1H12.28a8.32,8.32,0,0,1-6-2.1,7.55,7.55,0,0,1-2.17-5.79c0-1.3,0-2.59.13-3.83a37.06,37.06,0,0,1,.51-4,30.58,30.58,0,0,1,1-3.9,17.8,17.8,0,0,1,1.48-3.35,11.52,11.52,0,0,1,2-2.64,8,8,0,0,1,2.62-1.63A9.38,9.38,0,0,1,15,37.72c.14.08.4.22.81.49l2.87,1.85a20.25,20.25,0,0,0,4.61,2.06,18.35,18.35,0,0,0,11.5,0,20.26,20.26,0,0,0,4.61-2.06l2.87-1.85c.41-.27.67-.41.81-.49a9.39,9.39,0,0,1,3.21.62A8,8,0,0,1,48.93,40a11.5,11.5,0,0,1,2,2.64A17.78,17.78,0,0,1,52.42,46a30.59,30.59,0,0,1,1,3.9,37.26,37.26,0,0,1,.51,4h0c.09,1.23.13,2.52.13,3.83a7.55,7.55,0,0,1-2.17,5.79Zm0,0" fill="#fff"/></svg>