<svg xmlns="http://www.w3.org/2000/svg" viewBox="0 0 50.03 60"><title>user</title><path d="M8.91,60l-1.35-.34a9.36,9.36,0,0,1-7.49-8.8A31.22,31.22,0,0,1,2.15,37c1.64-4,4.33-6.92,8.8-7.78a6,6,0,0,1,4.79.88,25.35,25.35,0,0,0,4.8,2.64c4,1.59,7.89.95,11.57-1.17A12.85,12.85,0,0,0,34,30.32c1.9-1.59,4-1.5,6.2-.89a10.85,10.85,0,0,1,6.43,5c2.23,3.58,3,7.59,3.31,11.71a27.18,27.18,0,0,1-.07,5.84,9.31,9.31,0,0,1-7.7,7.81c-.3.06-.59.17-.88.25Zm16.16-3.52h0c4.88,0,9.76,0,14.64,0,4.28,0,6.79-2.53,6.83-6.78a27.46,27.46,0,0,0-1.34-9.81,17.72,17.72,0,0,0-2.77-5.07c-2.05-2.51-4.71-2.72-7.4-1-.46.3-.91.6-1.39.87a16.83,16.83,0,0,1-11.73,2.07,22.73,22.73,0,0,1-8-3.64,3.61,3.61,0,0,0-2.28-.46,6.18,6.18,0,0,0-4.48,2.7A19.13,19.13,0,0,0,5,39.5,29.46,29.46,0,0,0,3.55,50.35a6,6,0,0,0,5.14,5.93,12.91,12.91,0,0,0,2.33.2C15.7,56.49,20.38,56.48,25.07,56.48Z" fill="#38b126"/><path d="M10.23,14.33a14.45,14.45,0,1,1,28.89.28,14.45,14.45,0,0,1-28.89-.28Zm14.39,11a10.92,10.92,0,1,0-10.88-11A10.88,10.88,0,0,0,24.61,25.36Z" fill="#38b126"/></svg>