<svg xmlns="http://www.w3.org/2000/svg" viewBox="0 0 76.3 77.07"><title>wallet</title><path d="M75.8,35.93H72.15V19.15a7.31,7.31,0,0,0-7.3-7.3H59.91L54.85,2.75a4.38,4.38,0,0,0-6-1.7L29.48,11.85H7.8a7.31,7.31,0,0,0-7.3,7.3V69.27a7.31,7.31,0,0,0,7.3,7.3H64.85a7.31,7.31,0,0,0,7.3-7.3V54.55H75.8ZM64.85,14.77a4.37,4.37,0,0,1,4.33,3.89H63.7l-2.16-3.89ZM50.32,3.6a1.49,1.49,0,0,1,2,.57l8.06,14.49H23.24ZM69.23,69.27a4.38,4.38,0,0,1-4.38,4.38H7.8a4.38,4.38,0,0,1-4.38-4.38V19.15A4.39,4.39,0,0,1,7.8,14.77H24.23l-7,3.89H8.71a1.46,1.46,0,1,0,0,2.92H69.23V35.94H58.56a9,9,0,0,0-9,9v.63a9,9,0,0,0,9,9H69.23Zm3.65-17.64H58.56a6.08,6.08,0,0,1-6.07-6.07v-.63a6.08,6.08,0,0,1,6.07-6.07H72.88ZM63,45.36a3.22,3.22,0,1,1-3.22-3.22A3.22,3.22,0,0,1,63,45.36" fill="#fff"/><path d="M75.8,35.93H72.15V19.15a7.31,7.31,0,0,0-7.3-7.3H59.91L54.85,2.75a4.38,4.38,0,0,0-6-1.7L29.48,11.85H7.8a7.31,7.31,0,0,0-7.3,7.3V69.27a7.31,7.31,0,0,0,7.3,7.3H64.85a7.31,7.31,0,0,0,7.3-7.3V54.55H75.8ZM64.85,14.77a4.37,4.37,0,0,1,4.33,3.89H63.7l-2.16-3.89ZM50.32,3.6a1.49,1.49,0,0,1,2,.57l8.06,14.49H23.24ZM69.23,69.27a4.38,4.38,0,0,1-4.38,4.38H7.8a4.38,4.38,0,0,1-4.38-4.38V19.15A4.39,4.39,0,0,1,7.8,14.77H24.23l-7,3.89H8.71a1.46,1.46,0,1,0,0,2.92H69.23V35.94H58.56a9,9,0,0,0-9,9v.63a9,9,0,0,0,9,9H69.23Zm3.65-17.64H58.56a6.08,6.08,0,0,1-6.07-6.07v-.63a6.08,6.08,0,0,1,6.07-6.07H72.88ZM63,45.36a3.22,3.22,0,1,1-3.22-3.22A3.22,3.22,0,0,1,63,45.36Z" fill="none" stroke="#fff" stroke-miterlimit="10"/></svg>