<svg xmlns="http://www.w3.org/2000/svg" width="58" height="53" viewBox="0 0 58 53"><defs><linearGradient id="motua" x1=".41" x2="57.43" y1="26.16" y2="26.16" gradientUnits="userSpaceOnUse"><stop offset="0" stop-color="#ccc"/><stop offset="1" stop-color="#1d1d1b"/></linearGradient></defs><g><g><path fill="url(#motua)" d="M28.464.716C14.204 9.769 1.62 23.647 1.117 24.239a2.994 2.994 0 0 0 0 3.865c.508.598 13.291 14.708 27.71 23.754 1.961 1.231 4.503-.195 4.503-2.525V37.75c9.202-1.408 18.47-3.433 19.944-4.24 2.511-1.366 4.157-3.673 4.157-7.376 0-3.712-1.646-6.01-4.157-7.381-1.474-.806-10.742-2.833-19.944-4.239V2.973C33.33 1.191 31.879 0 30.36 0c-.657 0-1.326.222-1.896.716z"/></g></g></svg>