<svg xmlns="http://www.w3.org/2000/svg" width="69" height="69" viewBox="0 0 69 69"><defs><linearGradient id="jj9ja" x1=".16" x2="68.8" y1="34.48" y2="34.48" gradientUnits="userSpaceOnUse"><stop offset="0" stop-color="#ccc"/><stop offset="1" stop-color="#1d1d1b"/></linearGradient></defs><g><g><path fill="url(#jj9ja)" d="M39.95 42.37c0-.489-.128-.952-.384-1.389a4.958 4.958 0 0 0-.857-1.101c-.317-.297-.816-.623-1.499-.983a32.5 32.5 0 0 0-1.692-.837 47.928 47.928 0 0 0-2.049-.852c-.665-.278-1.192-.497-1.576-.655-.383-.157-.91-.387-1.576-.694a19.076 19.076 0 0 1-1.601-.812 26.218 26.218 0 0 1-1.446-.931c-.565-.384-1.021-.755-1.372-1.114-.348-.358-.72-.784-1.114-1.283a6.439 6.439 0 0 1-.908-1.52 10.82 10.82 0 0 1-.539-1.742 9.399 9.399 0 0 1-.218-2.045c0-2.411.837-4.524 2.51-6.34 1.674-1.819 3.85-2.987 6.533-3.511v-4.716c0-.227.08-.424.242-.589a.78.78 0 0 1 .578-.25h3.458c.237 0 .436.08.589.235.153.158.231.36.231.604v4.611c.974.105 1.916.306 2.83.603.912.299 1.656.59 2.227.878.572.289 1.116.615 1.627.983.513.368.845.619 1 .761.154.139.282.261.384.366.291.317.333.647.129.996l-2.075 3.826c-.137.26-.332.401-.591.42-.237.052-.47-.01-.689-.183a5.377 5.377 0 0 0-.373-.316c-.197-.156-.53-.388-1.001-.694a13.213 13.213 0 0 0-1.498-.838 11.06 11.06 0 0 0-1.908-.681 8.317 8.317 0 0 0-2.19-.302c-1.623 0-2.946.375-3.969 1.126-1.025.751-1.537 1.72-1.537 2.909 0 .453.073.873.217 1.257.143.386.398.745.756 1.086.359.342.696.631 1.011.866.317.236.794.505 1.436.812.64.307 1.156.542 1.55.709.392.164.99.404 1.793.72.904.35 1.595.624 2.074.827a31.57 31.57 0 0 1 1.946.916c.822.41 1.464.781 1.933 1.113.47.333 1 .77 1.589 1.311.588.541 1.041 1.096 1.356 1.663.317.567.586 1.234.807 2.003.222.771.332 1.589.332 2.463.003 2.673-.848 4.974-2.545 6.905-1.699 1.93-3.906 3.121-6.621 3.575v4.585a.83.83 0 0 1-.231.603.791.791 0 0 1-.589.236h-3.458a.782.782 0 0 1-.578-.249.817.817 0 0 1-.242-.59v-4.585a15.793 15.793 0 0 1-3.267-.811c-1.05-.384-1.916-.775-2.6-1.167a17.477 17.477 0 0 1-1.894-1.257c-.582-.445-.978-.775-1.192-.982a6.208 6.208 0 0 1-.446-.474c-.29-.366-.308-.722-.053-1.071l2.639-3.54c.119-.174.317-.278.59-.314a.631.631 0 0 1 .614.235l.051.053c1.929 1.73 4.003 2.822 6.225 3.276a8.783 8.783 0 0 0 1.894.207c1.384 0 2.601-.375 3.651-1.125 1.051-.751 1.576-1.816 1.576-3.196zm-5.472 26.437c18.926 0 34.323-15.397 34.323-34.322C68.801 15.56 53.404.161 34.478.161 15.553.161.156 15.56.156 34.485c0 18.925 15.397 34.322 34.322 34.322z"/></g></g></svg>