<svg xmlns="http://www.w3.org/2000/svg" width="355" height="354" viewBox="0 0 355 354"><defs><linearGradient id="wtp4a" x1=".87" x2="354.13" y1="177.13" y2="177.13" gradientUnits="userSpaceOnUse"><stop offset="0" stop-color="#fff"/><stop offset="1" stop-color="#1d1d1b"/></linearGradient><linearGradient id="wtp4b" x1="83.54" x2="271.46" y1="181.46" y2="181.46" gradientUnits="userSpaceOnUse"><stop offset="0" stop-color="#ccc"/><stop offset="1" stop-color="#1d1d1b"/></linearGradient></defs><g><g><path fill="url(#wtp4a)" d="M24.866 177.132c0-40.769 15.877-79.099 44.706-107.927C98.4 40.376 136.729 24.5 177.499 24.5c40.769 0 79.099 15.876 107.927 44.705 28.829 28.829 44.706 67.158 44.706 107.927 0 40.77-15.877 79.099-44.706 107.927-28.828 28.829-67.158 44.706-107.927 44.706-40.77 0-79.099-15.877-107.927-44.705-28.829-28.829-44.706-67.158-44.706-107.928zm152.633 176.632c97.551 0 176.632-79.08 176.632-176.632C354.131 79.581 275.05.5 177.499.5 79.947.5.867 79.581.867 177.132c0 97.552 79.08 176.632 176.632 176.632z"/></g><g><path fill="url(#wtp4b)" d="M247.928 114.277L142.802 219.401l-35.73-35.73c-5.383-5.384-14.114-5.384-19.497 0-5.385 5.385-5.385 14.114 0 19.499l45.478 45.479c5.385 5.383 14.114 5.383 19.499 0l114.873-114.875c5.385-5.383 5.385-14.113 0-19.497a13.74 13.74 0 0 0-9.748-4.039 13.74 13.74 0 0 0-9.749 4.039z"/></g></g></svg>