<svg xmlns="http://www.w3.org/2000/svg" width="82" height="82" viewBox="0 0 82 82"><defs><linearGradient id="s4g2a" x1=".33" x2="81.18" y1="41" y2="41" gradientUnits="userSpaceOnUse"><stop offset="0" stop-color="#d39c20"/><stop offset="1" stop-color="#d4ac2b"/></linearGradient></defs><g><g><path fill="url(#s4g2a)" d="M.331 40.997c0 22.324 18.098 40.422 40.424 40.422 22.325 0 40.423-18.098 40.423-40.422C81.178 18.671 63.08.573 40.755.573 18.429.573.331 18.671.331 40.997z"/></g><g><path fill="#fff" d="M22.509 61.29c-.59-.372-.675-.585-.502-1.281.731-2.933 1.46-5.866 2.203-8.796.057-.224.188-.46.351-.624 6.789-6.802 13.584-13.597 20.38-20.392.076-.077.16-.147.211-.193l8.12 8.12c-.091.059-.222.116-.316.21-6.747 6.74-13.489 13.484-20.242 20.218a1.835 1.835 0 0 1-.803.462c-2.916.747-5.839 1.469-8.759 2.199-.07.018-.135.052-.202.078z"/></g><g><path fill="#fff" d="M59.582 30.544c-.052.198-.074.41-.162.592-.246.502-.43 1.073-.798 1.468-.985 1.056-2.053 2.033-3.065 3.02l-7.97-7.97c.986-1.01 1.943-2.103 3.016-3.065 1.424-1.277 3.81-1.244 5.24.038.974.874 1.874 1.832 2.782 2.777.559.582.784 1.34.957 2.11z"/></g></g></svg>