<svg xmlns="http://www.w3.org/2000/svg" width="61" height="39" viewBox="0 0 61 39"><defs><linearGradient id="pfa4a" x1="-.02" x2="60.15" y1="19.64" y2="19.64" gradientUnits="userSpaceOnUse"><stop offset="0" stop-color="#ccc"/><stop offset="1" stop-color="#1d1d1b"/></linearGradient></defs><g><g><path fill="url(#pfa4a)" d="M34.447 26.084c-2.504 2.123-6.212 2.119-8.715 0l-4.105-3.487L3.969 38.696c.134.012.275.023.412.023h51.37c.144 0 .294-.01.435-.023L38.574 22.575zm7.498-6.375l17.864 16.35a4.464 4.464 0 0 0 .343-1.743V4.962c0-.216-.016-.433-.045-.641zM-.022 34.316c0 .617.117 1.21.344 1.743l17.911-16.328L.024 4.321a4.52 4.52 0 0 0-.046.641zM60.107 4.321c.001 0 0 0 0 0zM4.381.56a4.44 4.44 0 0 0-1.605.297l25.8 21.879c.931.787 2.099.786 3.027 0L57.355.857A4.438 4.438 0 0 0 55.751.56z"/></g></g></svg>