<svg xmlns="http://www.w3.org/2000/svg" width="327" height="335" viewBox="0 0 327 335"><defs><linearGradient id="egg0a" x1=".89" x2="326.11" y1="179.14" y2="179.14" gradientUnits="userSpaceOnUse"><stop offset="0" stop-color="#fff"/><stop offset=".57" stop-color="#fefefe"/><stop offset="1" stop-color="#1d1d1b"/></linearGradient><linearGradient id="egg0b" x1="149.24" x2="177.02" y1="87.85" y2="87.85" gradientUnits="userSpaceOnUse"><stop offset="0" stop-color="#fff"/><stop offset=".57" stop-color="#fefefe"/><stop offset="1" stop-color="#1d1d1b"/></linearGradient></defs><g><g><path fill="url(#egg0a)" d="M217.996 33.434c0 5.408 3.115 10.29 7.959 12.698 21.222 10.545 39.888 26.587 54.199 47.419a134.356 134.356 0 0 1 21.397 51.74c8.681 47.227-5.908 93.359-38.693 126.144-32.826 32.826-79.032 47.41-126.321 38.659a134.326 134.326 0 0 1-52.056-21.697c-46.612-32.323-69.132-86.508-59.177-142.315a134.642 134.642 0 0 1 21.683-52.739C61.666 72.054 80.9 55.782 102.763 45.292a11.024 11.024 0 0 0 6.24-9.945c0-8.125-8.491-13.441-15.816-9.922C24.457 58.435-17.49 138.322 8.824 223.656c15.342 49.747 54.771 88.659 104.65 103.567 111.141 33.219 212.634-49.111 212.634-155.147 0-65.38-38.589-121.739-94.23-147.564a9.667 9.667 0 0 0-4.085-.913c-5.15 0-9.797 4.18-9.797 9.835z"/></g><g><path fill="url(#egg0b)" d="M149.24 14.677v146.348c0 7.671 6.218 13.891 13.89 13.891 7.673 0 13.892-6.22 13.892-13.891V14.677c0-7.672-6.219-13.891-13.892-13.891-7.672 0-13.89 6.219-13.89 13.891z"/></g></g></svg>