<svg xmlns="http://www.w3.org/2000/svg" width="85" height="95" viewBox="0 0 85 95"><defs><linearGradient id="jh9ua" x1=".82" x2="84.29" y1="76.25" y2="76.25" gradientUnits="userSpaceOnUse"><stop offset="0" stop-color="#ccc"/><stop offset="1" stop-color="#1d1d1b"/></linearGradient><linearGradient id="jh9ub" x1="14.35" x2="70.75" y1="33.08" y2="33.08" gradientUnits="userSpaceOnUse"><stop offset="0" stop-color="#ccc"/><stop offset="1" stop-color="#1d1d1b"/></linearGradient></defs><g><g><path fill="url(#jh9ua)" d="M23.947 58.101c-3.602.948-6.981 2.4-9.995 4.589C4.717 69.398.495 78.555.834 89.89c.045 1.479.68 2.729 1.891 3.597.579.416 1.278.666 1.922.991h75.805c.132-.065.257-.145.394-.192 2.148-.733 3.391-2.415 3.431-4.672a44.71 44.71 0 0 0-.005-2.287c-.318-9.578-4.167-17.424-11.586-23.491-1.141-.933-2.406-1.711-3.621-2.566-.223.272-.339.411-.452.552-3.647 4.56-8.339 7.335-14.178 7.747-3.977.28-7.989.244-11.978.108-2.897-.099-5.003-1.709-6.345-4.306-.184-.355-.564-.725-.934-.85-3.707-1.256-6.937-3.274-9.703-6.023-.336-.334-.641-.475-1.005-.475-.161 0-.333.028-.523.078z"/></g><g><path fill="url(#jh9ub)" d="M23.209 24.2c1.221-9.585 9.382-16.8 19.149-16.946 9.632-.143 17.936 6.902 19.474 16.475.119.744.048 1.27-.542 1.758-.317.263-.53.655-.857 1.077-.17-.357-.32-.663-.461-.971-2.495-5.482-6.268-9.741-12.119-11.597-7.174-2.274-13.326-.202-18.477 5.114-2.061 2.128-3.536 4.649-4.666 7.449-.497-.569-.945-1.025-1.315-1.537-.153-.211-.221-.556-.186-.822zm-6.526-.307c-.046.431-.321.905-.629 1.226-1.015 1.061-1.669 2.282-1.679 3.748a871.872 871.872 0 0 0 0 14.006c.02 2.227 1.543 4.187 3.639 4.906a5.43 5.43 0 0 0 5.955-1.689l.581-.712c2.355 5.841 6.047 10.29 11.993 12.723 1.837-2.636 4.309-3.669 7.381-3.572 1.715.054 3.433.042 5.152.03a244.31 244.31 0 0 1 3.087-.007c1.864.013 3.429-.637 4.52-2.152.906-1.256 1.724-2.584 2.486-3.934.543-.96.929-2.01 1.391-3.036.432.473.834.887 1.201 1.33.143.175.298.417.292.625-.037 1.278.035 2.585-.214 3.826-.93 4.644-4.753 7.637-9.686 7.679-1.541.014-3.082.01-4.623.007-1.45-.003-2.9-.006-4.349.004-2.047.015-3.424 1.353-3.414 3.257.009 1.884 1.426 3.212 3.458 3.217 3.143.01 6.289.084 9.429-.014 6.681-.21 11.491-3.405 14.45-9.374 1.263-2.551 1.54-5.299 1.485-8.109-.01-.444.225-.99.529-1.324 1.01-1.113 1.612-2.372 1.618-3.873.015-4.547.013-9.093.001-13.64-.004-1.364-.43-2.628-1.415-3.564-.68-.647-.884-1.343-1-2.226C66.624 10.277 55.441.745 42.54.746c-.858 0-1.726.042-2.597.128C27.76 2.08 17.991 11.763 16.683 23.893z"/></g></g></svg>