<svg xmlns="http://www.w3.org/2000/svg" width="94" height="94" viewBox="0 0 94 94"><defs><linearGradient id="itxya" x1="35" x2="93.63" y1="31.79" y2="31.79" gradientUnits="userSpaceOnUse"><stop offset="0" stop-color="#ccc"/><stop offset="1" stop-color="#1d1d1b"/></linearGradient><linearGradient id="itxyb" x1=".51" x2="59.12" y1="61.71" y2="61.71" gradientUnits="userSpaceOnUse"><stop offset="0" stop-color="#ccc"/><stop offset="1" stop-color="#1d1d1b"/></linearGradient></defs><g><g><path fill="url(#itxya)" d="M57.491 5.751c-5.826 5.48-11.38 11.248-17.053 16.889-.53.528-.818 1.135-.476 1.884.333.731.946.953 1.706.953 3.27-.002 6.465.486 9.509 1.701 1.217.486 2.073.268 2.988-.666a918.929 918.929 0 0 1 10.989-10.998c3.309-3.266 8.319-3.737 11.983-1.182 4.834 3.372 5.375 10.12 1.118 14.412-4.632 4.668-9.298 9.303-13.953 13.948-1.974 1.969-3.901 3.99-5.954 5.874-2.535 2.328-5.536 2.922-8.867 2.058-1.74-.45-3.046-1.544-4.399-2.627-2.624-2.102-6.436-1.801-8.543.615-2.208 2.529-2.02 6.202.42 8.613 8.456 8.357 22.058 7.961 29.942.328 6.924-6.703 13.668-13.59 20.472-20.415 2.458-2.466 4.236-5.376 5.218-8.719.459-1.555.7-3.175 1.039-4.765v-3.456c-.057-.259-.138-.516-.169-.779-.573-4.718-2.486-8.803-5.698-12.312C83.583 2.54 77.689.193 71.81.194c-5.18 0-10.35 1.824-14.319 5.557z"/></g><g><path fill="url(#itxyb)" d="M26.335 36.769c-6.402 6.369-12.767 12.776-19.154 19.162C3.734 59.377 1.605 63.473.79 68.299-.866 78.101 5.093 88.49 14.461 91.817c1.95.693 4.035 1.005 6.058 1.492h3.638c.292-.064.582-.149.877-.189 4.477-.61 8.493-2.309 11.744-5.457 5.31-5.144 10.501-10.413 15.741-15.631.472-.47.976-.917 1.39-1.435.847-1.057.277-2.383-1.07-2.547-.19-.023-.384-.021-.576-.02l-.242-.001c-2.928-.045-5.829-.392-8.538-1.515-1.664-.689-2.876-.511-3.962.922-.435.575-1.015 1.04-1.529 1.555-3.041 3.044-6.055 6.118-9.131 9.128-4.259 4.166-11.024 3.537-14.333-1.285-2.554-3.724-2.027-8.677 1.325-12.037 6.441-6.46 12.901-12.902 19.354-19.349.258-.257.52-.512.802-.74 2.559-2.07 5.42-2.639 8.611-1.82 1.809.464 3.141 1.625 4.541 2.737 2.352 1.867 5.744 1.709 8.026-.314 2.086-1.85 2.575-5.155 1.02-7.642-1.184-1.893-2.997-3.164-4.862-4.299-3.587-2.185-7.497-3.254-11.377-3.254-5.644 0-11.221 2.264-15.633 6.653z"/></g></g></svg>