<svg xmlns="http://www.w3.org/2000/svg" width="87" height="87" viewBox="0 0 87 87"><defs><linearGradient id="dyz4a" x1=".08" x2="86.06" y1="43.44" y2="43.44" gradientUnits="userSpaceOnUse"><stop offset="0" stop-color="#ccc"/><stop offset="1" stop-color="#1d1d1b"/></linearGradient><linearGradient id="dyz4b" x1=".1" x2="60.69" y1="56.1" y2="56.1" gradientUnits="userSpaceOnUse"><stop offset="0" stop-color="#ccc"/><stop offset="1" stop-color="#1d1d1b"/></linearGradient></defs><g><g><path fill="url(#dyz4a)" d="M37.527.444c-1.253.451-1.882 1.38-2.126 2.658a32.15 32.15 0 0 1-.737 3.011c-.076.259-.363.582-.611.645-3.744.938-7.254 2.418-10.571 4.384-.218.13-.647.09-.886-.039-.982-.532-1.924-1.14-2.892-1.7-1.377-.796-2.441-.675-3.569.441a947.44 947.44 0 0 0-6.649 6.65c-1.116 1.126-1.241 2.199-.45 3.568.559.969 1.174 1.906 1.698 2.893.136.255.147.715.005.958-1.93 3.272-3.388 6.732-4.325 10.416-.074.289-.444.62-.743.712-1.067.325-2.164.553-3.25.821-1.622.4-2.331 1.263-2.336 2.903-.012 3.107-.011 6.214-.001 9.321.005 1.654.706 2.523 2.314 2.922 1.057.262 2.109.564 3.179.76.575.106.733.417.899.909.69 2.064 1.433 4.11 2.164 6.159.093.258.237.498.39.815.25-.235.454-.417.647-.61 3.535-3.549 7.063-7.107 10.614-10.641.398-.397.543-.775.464-1.327-.459-3.187-.412-6.349.453-9.48 1.764-6.387 5.555-11.203 11.418-14.221 6.899-3.551 13.979-3.591 20.871-.027 6.714 3.47 10.729 9.094 11.897 16.586 1.078 6.911-.697 13.11-5.267 18.415-3.692 4.286-8.431 6.716-14.047 7.446-2.232.29-4.453.377-6.688.012-.35-.057-.866.065-1.107.303-3.727 3.675-7.42 7.383-11.12 11.085-.078.077-.14.171-.362.444 2.162.763 4.203 1.596 6.313 2.184 1.078.301 1.687.695 1.813 1.85.093.854.376 1.688.589 2.528.376 1.494 1.276 2.219 2.826 2.226 3.162.013 6.326.015 9.488-.001 1.541-.008 2.42-.735 2.8-2.254.278-1.111.514-2.234.835-3.332.083-.286.373-.655.635-.72 3.743-.942 7.253-2.421 10.57-4.389.217-.129.646-.083.886.047.983.533 1.923 1.141 2.892 1.7 1.372.792 2.438.667 3.568-.452a947.725 947.725 0 0 0 6.651-6.65c1.116-1.128 1.236-2.187.439-3.567a80.319 80.319 0 0 0-1.68-2.807c-.234-.369-.289-.654-.043-1.058a37.839 37.839 0 0 0 4.349-10.402c.073-.287.446-.613.746-.707a28.418 28.418 0 0 1 3.008-.748c1.254-.243 2.138-.886 2.573-2.105V37.895c-.438-1.262-1.371-1.886-2.648-2.13a33.066 33.066 0 0 1-3.009-.735c-.259-.075-.585-.359-.647-.606-.94-3.737-2.414-7.247-4.379-10.561-.131-.22-.108-.648.02-.884.53-.983 1.137-1.922 1.698-2.889.821-1.415.692-2.461-.466-3.629a1167.536 1167.536 0 0 0-6.584-6.583c-1.162-1.154-2.216-1.28-3.63-.459-.967.561-1.907 1.168-2.889 1.698-.236.127-.664.143-.886.012-3.314-1.965-6.824-3.438-10.562-4.377-.246-.061-.525-.393-.602-.653a33.406 33.406 0 0 1-.732-3.01C50.499 1.813 49.867.886 48.61.444z"/></g><g><path fill="url(#dyz4b)" d="M37.96 26.56c-9.358 2.853-14.571 12.64-11.725 21.952.187.614.091.992-.372 1.452-7.675 7.64-15.33 15.301-22.984 22.963-.454.454-.884.936-1.283 1.439-3.07 3.872-1.198 10.042 3.503 11.588 3.213 1.058 5.948.212 8.279-2.114a9960.122 9960.122 0 0 0 23.2-23.223c.442-.444.799-.476 1.38-.344 1.681.383 3.385.661 4.297.833 6.899-.203 11.924-2.436 15.365-7.619 2.956-4.451 3.734-9.326 2.527-14.519-.273-1.175-1.175-1.92-2.308-1.985-.949-.055-1.628.437-2.267 1.074-1.941 1.936-3.829 3.934-5.879 5.748-1.97 1.743-5.056 1.385-6.795-.587-1.863-2.113-1.696-5.006.433-7.158 1.791-1.811 3.622-3.582 5.392-5.412 1.478-1.528.87-3.775-1.155-4.274a18.981 18.981 0 0 0-4.551-.569c-1.691 0-3.379.244-5.057.755z"/></g></g></svg>