<svg xmlns="http://www.w3.org/2000/svg" width="89" height="101" viewBox="0 0 89 101"><defs><linearGradient id="8rgpa" x1="17.99" x2="64.72" y1="24.17" y2="24.17" gradientUnits="userSpaceOnUse"><stop offset="0" stop-color="#ccc"/><stop offset="1" stop-color="#1d1d1b"/></linearGradient><linearGradient id="8rgpb" x1=".08" x2="78.06" y1="72.52" y2="72.52" gradientUnits="userSpaceOnUse"><stop offset="0" stop-color="#ccc"/><stop offset="1" stop-color="#1d1d1b"/></linearGradient><linearGradient id="8rgpc" x1="53.09" x2="88.9" y1="82.56" y2="82.56" gradientUnits="userSpaceOnUse"><stop offset="0" stop-color="#ccc"/><stop offset="1" stop-color="#1d1d1b"/></linearGradient></defs><g><g><path fill="url(#8rgpa)" d="M39.212.802c-.895.161-1.795.302-2.687.484-5.242 1.066-9.475 3.804-12.989 7.777-5.725 6.473-7.202 16.875-3.55 24.684 3.888 8.313 12.454 14.44 22.867 13.735 7.931-.536 13.926-4.313 18.26-10.802 3.262-4.884 4.103-10.344 3.341-16.121-1.158-8.776-8.501-16.978-17.099-18.993-1.251-.294-2.521-.511-3.782-.764z"/></g><g><path fill="url(#8rgpb)" d="M56.041 48.912c-1.06.791-2.207 1.468-3.334 2.165-8.081 4.999-16.178 5.01-24.274.041-1.426-.876-2.781-1.871-4.247-2.67-.891-.485-1.926-.964-2.905-.983-3.1-.058-6.061.656-8.824 2.135-4.418 2.365-7.106 6.22-8.903 10.693C.538 67.804-.395 75.678.289 83.705c.384 4.496 2.57 8.133 6.276 10.783 3.264 2.334 6.981 3.109 10.918 3.107 7.675-.005 15.35-.001 23.025-.001 4.769 0 9.538-.004 14.308-.005-3.733-3.951-6.029-9.273-6.029-15.124 0-12.155 9.889-22.044 22.044-22.044 2.533 0 4.965.435 7.232 1.225a31.84 31.84 0 0 0-1.89-4.19c-3.003-5.5-7.457-8.937-13.751-9.861a12.523 12.523 0 0 0-1.799-.141c-1.628 0-3.156.395-4.582 1.458z"/></g><g><path fill="url(#8rgpc)" d="M53.091 82.562c0 9.888 8.016 17.903 17.903 17.903 9.886 0 17.902-8.015 17.902-17.903 0-9.886-8.016-17.902-17.902-17.902-9.887 0-17.903 8.016-17.903 17.902z"/></g><g><path fill="#fdfeff" d="M62.913 91.55c-.26-.165-.299-.26-.222-.568.324-1.299.646-2.598.975-3.895a.633.633 0 0 1 .156-.276c3.006-3.013 6.016-6.022 9.025-9.032.034-.034.071-.065.094-.085l3.596 3.596c-.04.026-.098.051-.14.093-2.988 2.985-5.974 5.972-8.964 8.954a.824.824 0 0 1-.356.205c-1.292.33-2.586.65-3.879.974-.03.007-.06.022-.09.034z"/></g><g><path fill="#fdfeff" d="M79.332 77.933c-.023.088-.033.182-.072.262-.11.222-.19.476-.353.65-.436.468-.91.901-1.358 1.338-1.17-1.17-2.358-2.359-3.53-3.529.438-.448.86-.932 1.336-1.358.63-.566 1.688-.55 2.32.017.432.387.83.811 1.233 1.23.248.257.348.593.424.934z"/></g></g></svg>