<svg xmlns="http://www.w3.org/2000/svg" width="52" height="60" viewBox="0 0 52 60"><defs><linearGradient id="tos8a" x1=".74" x2="51.39" y1="30.04" y2="30.04" gradientUnits="userSpaceOnUse"><stop offset="0" stop-color="#ccc"/><stop offset="1" stop-color="#1d1d1b"/></linearGradient></defs><g><g><path fill="url(#tos8a)" d="M23.169 41.55c-1.324 3.748-1.324 9.592-1.324 9.592h8.441s0-5.844-1.324-9.592a4.221 4.221 0 1 0-5.793 0zm24-15.731a4.221 4.221 0 0 1 4.221 4.22v21.103a8.442 8.442 0 0 1-8.442 8.442H9.183a8.442 8.442 0 0 1-8.442-8.442V30.039c0-2.329 1.89-4.22 4.221-4.22zM9.183 17.377C9.183 8.053 16.741.495 26.065.495c9.324 0 16.884 7.558 16.884 16.882 0 1.458-.185 2.872-.532 4.221h-9.039a8.442 8.442 0 1 0-14.624 0H9.715a16.922 16.922 0 0 1-.532-4.221z"/></g></g></svg>