<svg xmlns="http://www.w3.org/2000/svg" width="112" height="112" viewBox="0 0 112 112"><g><g><path fill="#fff" d="M55.87.29c30.788 0 55.838 25.05 55.838 55.84 0 30.788-25.05 55.837-55.839 55.837C25.08 111.968.031 86.92.031 56.13.031 25.34 25.081.29 55.87.29zm15.296 79.39c2.762-3.142 4.145-6.885 4.141-11.235 0-1.42-.178-2.752-.54-4.004-.36-1.252-.799-2.338-1.314-3.26-.512-.922-1.248-1.824-2.206-2.705-.958-.88-1.82-1.591-2.584-2.133-.763-.54-1.809-1.143-3.145-1.81-1.33-.67-2.388-1.166-3.167-1.492-.778-.328-1.902-.775-3.373-1.344a154.708 154.708 0 0 1-2.918-1.173c-.64-.27-1.48-.651-2.52-1.151-1.045-.5-1.82-.938-2.336-1.322a18.312 18.312 0 0 1-1.646-1.409c-.582-.554-.996-1.14-1.23-1.766a5.8 5.8 0 0 1-.353-2.046c0-1.934.834-3.511 2.501-4.732 1.664-1.221 3.817-1.831 6.457-1.831 1.167 0 2.355.161 3.563.49 1.208.324 2.242.695 3.104 1.109.863.414 1.675.866 2.438 1.363.765.497 1.307.875 1.628 1.129.32.257.52.428.605.513.358.28.736.382 1.123.298.42-.03.737-.26.96-.682l3.376-6.225c.333-.568.263-1.106-.209-1.621-.167-.17-.376-.368-.625-.596-.252-.23-.792-.638-1.627-1.237a19.86 19.86 0 0 0-2.647-1.6c-.929-.467-2.139-.941-3.623-1.427a22.709 22.709 0 0 0-4.604-.981v-7.501c0-.398-.126-.726-.376-.983-.25-.254-.57-.382-.958-.382h-5.625c-.362 0-.677.134-.94.404-.264.27-.394.59-.394.96v7.673c-4.366.853-7.906 2.753-10.63 5.71-2.72 2.956-4.082 6.393-4.082 10.316 0 1.164.12 2.273.353 3.325.238 1.051.531 1.995.877 2.834.347.84.841 1.666 1.478 2.475.641.81 1.246 1.504 1.813 2.087.571.582 1.313 1.187 2.231 1.81.915.627 1.7 1.132 2.353 1.517.654.381 1.522.822 2.604 1.32 1.084.5 1.941.874 2.564 1.128.626.26 1.482.614 2.564 1.067 1.503.596 2.614 1.057 3.334 1.385.724.326 1.642.781 2.753 1.363 1.111.585 1.923 1.116 2.438 1.6a8.024 8.024 0 0 1 1.394 1.79c.416.71.626 1.465.626 2.26 0 2.246-.855 3.978-2.565 5.199-1.709 1.22-3.688 1.83-5.94 1.83-1.028 0-2.053-.11-3.08-.337-3.615-.738-6.989-2.515-10.129-5.329l-.08-.084c-.253-.313-.586-.44-1.002-.383-.443.059-.765.228-.958.51l-4.294 5.759c-.416.566-.387 1.146.086 1.742.137.172.38.43.726.77.35.34.992.874 1.94 1.598a28.098 28.098 0 0 0 3.08 2.046c1.114.639 2.522 1.273 4.231 1.898a25.678 25.678 0 0 0 5.315 1.32v7.458c0 .37.13.69.393.96.264.27.58.405.941.405h5.625c.387 0 .708-.127.958-.384s.376-.58.376-.98v-7.46c4.417-.737 8.007-2.676 10.771-5.816z"/></g></g></svg>