<svg xmlns="http://www.w3.org/2000/svg" width="355" height="354" viewBox="0 0 355 354"><defs><linearGradient id="bn8ca" x1=".87" x2="354.13" y1="176.67" y2="176.67" gradientUnits="userSpaceOnUse"><stop offset="0" stop-color="#fff"/><stop offset=".57" stop-color="#fefefe"/><stop offset="1" stop-color="#1d1d1b"/></linearGradient><linearGradient id="bn8cb" x1="138.33" x2="251.55" y1="153.91" y2="157.56" gradientUnits="userSpaceOnUse"><stop offset="0" stop-color="#ccc"/><stop offset="1" stop-color="#1d1d1b"/></linearGradient><linearGradient id="bn8cc" x1="149.85" x2="206.2" y1="225.64" y2="263.73" gradientUnits="userSpaceOnUse"><stop offset="0" stop-color="#ccc"/><stop offset="1" stop-color="#1d1d1b"/></linearGradient></defs><g><g><path fill="url(#bn8ca)" d="M24.866 176.672c0-40.769 15.877-79.099 44.706-107.927 28.829-28.829 67.157-44.706 107.927-44.706 40.769 0 79.099 15.877 107.928 44.706 28.828 28.828 44.705 67.158 44.705 107.927 0 40.77-15.877 79.099-44.705 107.928-28.829 28.828-67.159 44.705-107.928 44.705-40.77 0-79.099-15.877-107.927-44.705-28.829-28.829-44.706-67.158-44.706-107.928zm152.633 176.632c97.551 0 176.633-79.08 176.633-176.632C354.132 79.121 275.05.04 177.499.04 79.948.04.867 79.121.867 176.672c0 97.552 79.081 176.632 176.632 176.632z"/></g><g><path fill="url(#bn8cb)" d="M133.296 123.821c-4.448 9.084 2.123 19.689 12.237 19.689 5.789 0 11.098-3.509 13.09-8.945 2.978-8.118 8.912-13.5 19.748-13.5 13.447 0 19.208 9.079 19.208 18.768 0 8.668-2.674 16.358-13.593 26.14-17.597 15.666-22.948 27.126-22.948 41.592v1.721a2.28 2.28 0 0 0 2.279 2.279h25.482a2.279 2.279 0 0 0 2.278-2.279c0-10.132 3.464-17.85 13.968-27.611 16.877-15.506 21.805-25.78 21.805-40.934 0-17.924-11.23-42.172-47.921-42.336l-.337-.001c-25.28.002-38.782 12.112-45.296 25.417z"/></g><g><path fill="url(#bn8cc)" d="M164.038 225.202a3 3 0 0 0-3 3v30.301a3 3 0 0 0 3 3h24.04a2.999 2.999 0 0 0 2.999-3v-30.301c0-1.657-1.342-3-2.999-3z"/></g></g></svg>