<svg xmlns="http://www.w3.org/2000/svg" width="55" height="54" viewBox="0 0 55 54"><defs><linearGradient id="9kdla" x1="-.98" x2="56.93" y1="26.99" y2="26.99" gradientUnits="userSpaceOnUse"><stop offset="0" stop-color="#ccc"/><stop offset="1" stop-color="#1d1d1b"/></linearGradient></defs><g><g><path fill="url(#9kdla)" d="M22.692 7.501c8.08-.026 14.731 6.616 14.726 14.706-.006 8.087-6.576 14.664-14.68 14.699h-.063c-8.068 0-14.658-6.58-14.686-14.679-.028-8.091 6.571-14.7 14.703-14.726zm-16.119.132c-2.72 3.003-4.484 6.492-5.236 10.479-.168.89-.268 1.792-.401 2.689v2.84c.033.17.081.339.095.511A20.797 20.797 0 0 0 3.66 32.72c2.335 4.158 5.654 7.288 10.011 9.259 5.801 2.626 11.668 2.652 17.533.232 1.365-.563 2.636-1.353 3.99-2.06.066.062.183.164.292.274 1.737 1.734 3.472 3.47 5.207 5.205 2.169 2.17 4.354 4.323 6.503 6.511 2.555 2.601 6.608 1.396 7.441-1.817.447-1.725-.099-3.168-1.33-4.397-3.807-3.804-7.611-7.611-11.416-11.416-.752-.752-.737-.743-.232-1.652 2.631-4.739 3.458-9.786 2.334-15.08C42.675 11.563 39.23 6.788 33.785 3.51 30.345 1.439 26.702.431 22.897.431c-1.489 0-3.004.155-4.54.461-4.664.927-8.59 3.215-11.784 6.741z"/></g></g></svg>