<svg xmlns="http://www.w3.org/2000/svg" width="65" height="53" viewBox="0 0 65 53"><g><g opacity=".5"><g opacity=".5"><path fill="#fffffd" d="M60.196 39.766c.45 0 .89-.047 1.319-.134v4.091c0 5.091-4.142 9.232-9.232 9.232H10.08c-5.091 0-9.232-4.14-9.232-9.232V9.433c0-5.09 4.14-9.232 9.232-9.232h42.203c4.645 0 8.46 3.461 9.1 7.932a9.196 9.196 0 0 0-6.463-2.656H10.08a1.319 1.319 0 1 0 0 2.637h44.84a6.602 6.602 0 0 1 6.595 6.594v1.454a6.609 6.609 0 0 0-1.32-.135h-10.55c-6.544 0-11.87 5.326-11.87 11.87s5.326 11.87 11.87 11.87zm0-21.1a3.96 3.96 0 0 1 3.956 3.955v10.551a3.961 3.961 0 0 1-3.956 3.957H49.645c-5.091 0-9.232-4.14-9.232-9.232 0-5.09 4.14-9.232 9.232-9.232zM49.645 31.852a3.962 3.962 0 0 0 3.957-3.956 3.962 3.962 0 0 0-3.957-3.957 3.962 3.962 0 0 0-3.957 3.957 3.962 3.962 0 0 0 3.957 3.956zm0-5.275a1.32 1.32 0 1 1-.001 2.64 1.32 1.32 0 0 1 0-2.64z"/></g></g></g></svg>