<svg xmlns="http://www.w3.org/2000/svg" width="53" height="84" viewBox="0 0 53 84"><g><g><path fill="#fffffd" d="M27.551.924c.823.165 1.651.306 2.468.498 5.608 1.314 10.398 6.665 11.153 12.389.497 3.768-.05 7.33-2.179 10.516-2.827 4.232-6.738 6.696-11.91 7.046-6.794.459-12.38-3.537-14.917-8.96-2.382-5.093-1.419-11.879 2.316-16.101 2.292-2.591 5.053-4.377 8.472-5.073.582-.118 1.17-.211 1.753-.315h2.844z"/></g><g><path fill="#fffffd" d="M26.488 64.23c-5.006 0-10.013-.001-15.019.002-2.568 0-4.993-.505-7.122-2.027C1.93 60.477.504 58.104.253 55.17c-.446-5.235.162-10.372 2.13-15.271 1.172-2.918 2.926-5.433 5.807-6.975a11.593 11.593 0 0 1 5.756-1.393c.64.012 1.314.325 1.895.642.956.52 1.841 1.17 2.77 1.74 5.282 3.242 10.563 3.235 15.834-.026.735-.454 1.484-.896 2.175-1.412 1.265-.943 2.655-1.08 4.162-.86 4.106.604 7.011 2.845 8.97 6.433 1.75 3.203 2.534 6.682 2.887 10.267.18 1.82.266 3.659.244 5.488-.067 5.642-3.85 9.73-9.466 10.313-.674.07-1.355.108-2.033.109-4.965.009-9.93.005-14.896.005z"/></g><g><path fill="#fff" d="M31.732 78.622a5.232 5.232 0 1 1-10.464 0 5.232 5.232 0 0 1 10.464 0z"/></g></g></svg>