<svg xmlns="http://www.w3.org/2000/svg" width="63" height="59" viewBox="0 0 63 59"><g><g opacity=".5"><g opacity=".5"><path fill="#fffffd" d="M4.657 50.227a4.141 4.141 0 0 0-4.13 4.13c0 2.27 1.857 4.13 4.13 4.13h53.687a4.142 4.142 0 0 0 4.129-4.13 4.141 4.141 0 0 0-4.13-4.13zM32.224.801a2.062 2.062 0 0 0-1.448 0C14.225 7.008 1.96 15.128 1.446 15.471a2.064 2.064 0 0 0-.92 1.718v4.13c0 1.141.927 2.065 2.066 2.065h4.13v22.713H19.11V23.384h6.195v22.713h12.389V23.384h6.195v22.713h12.389V23.384h4.13a2.065 2.065 0 0 0 2.064-2.065v-4.13c0-.69-.344-1.335-.92-1.718-.513-.343-12.778-8.463-29.33-14.67z"/></g></g></g></svg>