<svg xmlns="http://www.w3.org/2000/svg" width="63" height="81" viewBox="0 0 63 81"><g><g><path fill="#fffffd" d="M5.07 50.145a4.141 4.141 0 0 0-4.13 4.13c0 2.27 1.857 4.13 4.13 4.13h53.687a4.142 4.142 0 0 0 4.129-4.13 4.141 4.141 0 0 0-4.13-4.13zM32.637.719a2.062 2.062 0 0 0-1.448 0C14.638 6.926 2.374 15.046 1.859 15.389a2.064 2.064 0 0 0-.92 1.718v4.13c0 1.14.927 2.065 2.066 2.065h4.13v22.713h12.389V23.302h6.195v22.713h12.389V23.302h6.195v22.713h12.389V23.302h4.13a2.065 2.065 0 0 0 2.064-2.065v-4.13c0-.69-.344-1.335-.92-1.718-.513-.343-12.778-8.463-29.33-14.67z"/></g><g><path fill="#fff" d="M37.145 75.54a5.232 5.232 0 1 1-10.464 0 5.232 5.232 0 0 1 10.464 0z"/></g></g></svg>