<svg xmlns="http://www.w3.org/2000/svg" width="53" height="64" viewBox="0 0 53 64"><g><g opacity=".5"><g opacity=".5"><path fill="#fffffd" d="M27.551.27c.823.166 1.651.307 2.468.499 5.608 1.314 10.398 6.665 11.153 12.389.497 3.768-.05 7.33-2.179 10.516-2.827 4.232-6.738 6.696-11.91 7.046-6.794.459-12.38-3.537-14.917-8.96-2.382-5.093-1.419-11.88 2.316-16.101 2.292-2.591 5.053-4.377 8.472-5.073.582-.118 1.17-.211 1.753-.315z"/></g><g opacity=".5"><path fill="#fffffd" d="M26.488 63.577c-5.006 0-10.013-.002-15.019.001-2.568.001-4.993-.505-7.122-2.027-2.418-1.728-3.843-4.1-4.094-7.034-.446-5.235.162-10.372 2.13-15.27 1.172-2.919 2.926-5.434 5.807-6.976a11.593 11.593 0 0 1 5.756-1.393c.64.012 1.314.325 1.895.642.956.52 1.841 1.17 2.77 1.741 5.282 3.241 10.563 3.234 15.834-.027.735-.454 1.484-.896 2.175-1.412 1.265-.943 2.655-1.08 4.162-.859 4.106.603 7.011 2.844 8.97 6.432 1.75 3.203 2.534 6.682 2.887 10.267.18 1.82.266 3.66.244 5.488-.067 5.642-3.85 9.731-9.466 10.313-.674.07-1.355.108-2.033.11-4.965.008-9.93.004-14.896.004z"/></g></g></g></svg>