<svg xmlns="http://www.w3.org/2000/svg" width="48" height="56" viewBox="0 0 48 56"><defs><linearGradient id="9daca" x1="10.3" x2="37.14" y1="13.69" y2="13.69" gradientUnits="userSpaceOnUse"><stop offset="0" stop-color="#ccc"/><stop offset="1" stop-color="#1d1d1b"/></linearGradient><linearGradient id="9dacb" x1=".83" x2="47.3" y1="41.62" y2="41.62" gradientUnits="userSpaceOnUse"><stop offset="0" stop-color="#ccc"/><stop offset="1" stop-color="#1d1d1b"/></linearGradient></defs><g><g><path fill="url(#9daca)" d="M22.486.27c-.515.092-1.032.174-1.544.277-3.011.614-5.443 2.186-7.462 4.469-3.288 3.718-4.137 9.694-2.039 14.179 2.234 4.777 7.154 8.296 13.136 7.891 4.556-.307 8.001-2.477 10.49-6.205 1.874-2.806 2.357-5.943 1.92-9.261-.665-5.042-4.885-9.754-9.823-10.912C26.445.54 25.715.415 24.991.27z"/></g><g><path fill="url(#9dacb)" d="M32.978 28.058c-.609.454-1.268.843-1.916 1.243-4.642 2.872-9.293 2.879-13.945.024-.819-.503-1.597-1.076-2.44-1.534-.512-.279-1.106-.554-1.668-.565a10.2 10.2 0 0 0-5.069 1.227c-2.538 1.358-4.082 3.573-5.115 6.143C1.092 38.91.557 43.434.95 48.045c.22 2.583 1.476 4.673 3.605 6.195 1.876 1.341 4.011 1.785 6.272 1.784 4.409-.002 8.818-.001 13.228-.001 4.373 0 8.745.004 13.118-.003a17.862 17.862 0 0 0 1.791-.097c4.946-.513 8.276-4.113 8.336-9.082.02-1.611-.056-3.23-.214-4.834-.312-3.157-1.003-6.221-2.543-9.042-1.725-3.16-4.284-5.133-7.9-5.664a7.047 7.047 0 0 0-1.032-.081c-.936 0-1.814.227-2.633.838z"/></g></g></svg>