<svg xmlns="http://www.w3.org/2000/svg" width="77" height="64" viewBox="0 0 77 64"><defs><linearGradient id="wvuca" x1="86.34" x2="-12.27" y1="30.44" y2="33.57" gradientUnits="userSpaceOnUse"><stop offset="0" stop-color="#ccc"/><stop offset="1" stop-color="#1d1d1b"/></linearGradient></defs><g><g><path fill="url(#wvuca)" d="M59.23 35.153a1.577 1.577 0 1 0 0-3.154 1.577 1.577 0 0 0 0 3.154zm0-6.311a4.74 4.74 0 0 1 4.734 4.734 4.74 4.74 0 0 1-4.734 4.734 4.74 4.74 0 0 1-4.734-4.734 4.74 4.74 0 0 1 4.734-4.734zm0-6.311c-6.091 0-11.046 4.954-11.046 11.045s4.955 11.045 11.046 11.045h12.623a4.74 4.74 0 0 0 4.734-4.734V27.264a4.739 4.739 0 0 0-4.734-4.733zM11.893.439C5.801.439.847 5.394.847 11.485v41.026c0 6.091 4.954 11.045 11.046 11.045h50.493c6.09 0 11.045-4.954 11.045-11.045v-4.895a7.901 7.901 0 0 1-1.578.161H59.23c-7.829 0-14.201-6.371-14.201-14.201S51.4 19.375 59.23 19.375h12.623c.54 0 1.067.056 1.578.161v-1.739c0-4.349-3.538-7.89-7.889-7.89H11.893a1.578 1.578 0 0 1 0-3.156h53.649c3.01 0 5.737 1.219 7.731 3.178-.764-5.349-5.33-9.49-10.887-9.49z"/></g></g></svg>