<svg xmlns="http://www.w3.org/2000/svg" width="65" height="54" viewBox="0 0 65 54"><g><g><path fill="#fffffd" d="M60.196 40.113c.45 0 .89-.047 1.319-.134v4.09c0 5.092-4.142 9.233-9.232 9.233H10.08c-5.091 0-9.232-4.141-9.232-9.232V9.78c0-5.091 4.14-9.232 9.232-9.232h42.203c4.645 0 8.46 3.46 9.1 7.932a9.196 9.196 0 0 0-6.463-2.656H10.08a1.319 1.319 0 1 0 0 2.637h44.84a6.602 6.602 0 0 1 6.595 6.594v1.454a6.609 6.609 0 0 0-1.32-.135h-10.55c-6.544 0-11.87 5.326-11.87 11.87s5.326 11.869 11.87 11.869zm0-21.101a3.96 3.96 0 0 1 3.956 3.956v10.55a3.961 3.961 0 0 1-3.956 3.958H49.645c-5.091 0-9.232-4.141-9.232-9.232 0-5.091 4.14-9.232 9.232-9.232zM49.645 32.2a3.962 3.962 0 0 0 3.957-3.956 3.962 3.962 0 0 0-3.957-3.957 3.962 3.962 0 0 0-3.957 3.957 3.962 3.962 0 0 0 3.957 3.956zm0-5.275a1.32 1.32 0 1 1-.001 2.639 1.32 1.32 0 0 1 0-2.64z"/></g></g></svg>