<svg xmlns="http://www.w3.org/2000/svg" viewBox="0 0 59.51 46.8"><defs><style>.cls-1{fill:#fff;}</style></defs><title>back</title><g id="Layer_2" data-name="Layer 2"><g id="_15" data-name="15"><path class="cls-1" d="M55.56,19.45H13.5L26.2,6.75a4,4,0,0,0-5.6-5.59L1.16,20.6a4.06,4.06,0,0,0-.82,1.2l0,.06a4.44,4.44,0,0,0-.19.62s0,.08,0,.13a3.94,3.94,0,0,0,0,1.58s0,.09,0,.13a4.44,4.44,0,0,0,.19.62l0,.06a4.06,4.06,0,0,0,.82,1.2L20.6,45.64a4,4,0,0,0,6.76-2.79,4,4,0,0,0-1.16-2.8L13.5,27.36H55.56a4,4,0,0,0,0-7.91Z"/></g></g></svg>