<svg xmlns="http://www.w3.org/2000/svg" viewBox="0 0 66.43 57.4"><defs><style>.cls-1{fill:#fff;}</style></defs><title>my-gallery</title><g id="Layer_2" data-name="Layer 2"><g id="_15" data-name="15"><path class="cls-1" d="M34.42,48a8.36,8.36,0,0,1-5.28-2L19.4,37.46a4.29,4.29,0,0,0-5.54-.26L0,47.38V54a3.21,3.21,0,0,0,3,3.39H52.38c2,0,3.93-1.43,3.93-3.39V36.66L38.71,46.85A8.11,8.11,0,0,1,34.42,48Z"/><path class="cls-1" d="M63.2,5.65,14.48,0A4.13,4.13,0,0,0,11.8.73a4.15,4.15,0,0,0-1.34,2.32l-.8,7H52.38a7.7,7.7,0,0,1,7.51,7.42V49c0-.18.8-.35,1.16-.71a3,3,0,0,0,1.16-2.41l4.2-36.29A3.43,3.43,0,0,0,65.61,7,3.28,3.28,0,0,0,63.2,5.65Z"/><path class="cls-1" d="M52.38,13.6H3.31c-2,0-3.3,1.88-3.3,3.84V42.92L11.8,34.34a7.85,7.85,0,0,1,9.92.44l9.84,8.58a4.55,4.55,0,0,0,5.27.45L56.31,32.46v-15A4.1,4.1,0,0,0,52.38,13.6ZM33.7,34.25a7.51,7.51,0,1,1,7.51-7.51A7.51,7.51,0,0,1,33.7,34.25Z"/></g></g></svg>